<svg width="848" height="444" viewBox="0 0 848 444" fill="none" xmlns="http://www.w3.org/2000/svg">
<mask id="mask0_1677_24620" style="mask-type:alpha" maskUnits="userSpaceOnUse" x="0" y="0" width="848" height="444">
<path d="M838 0H10C4.47715 0 0 4.47716 0 10V433.22C0 438.743 4.47718 443.22 10 443.22H838C843.523 443.22 848 438.743 848 433.22V10C848 4.47715 843.523 0 838 0Z" fill="url(#paint0_linear_1677_24620)"/>
</mask>
<g mask="url(#mask0_1677_24620)">
<rect width="848" height="443.22" rx="10" fill="url(#paint1_linear_1677_24620)"/>
<rect x="358" y="284" width="131" height="30" rx="5" fill="#FFC01E"/>
<path d="M377.296 295.749L374.589 304H372.408L376.106 294.047H377.494L377.296 295.749ZM379.545 304L376.831 295.749L376.612 294.047H378.014L381.732 304H379.545ZM379.422 300.295V301.901H374.165V300.295H379.422ZM386.825 302.229V296.604H388.794V304H386.941L386.825 302.229ZM387.044 300.712L387.625 300.698C387.625 301.19 387.568 301.648 387.454 302.072C387.34 302.492 387.169 302.856 386.941 303.166C386.714 303.471 386.426 303.711 386.08 303.884C385.734 304.052 385.326 304.137 384.856 304.137C384.496 304.137 384.164 304.087 383.858 303.986C383.558 303.882 383.298 303.72 383.079 303.501C382.865 303.278 382.696 302.993 382.573 302.646C382.455 302.296 382.396 301.874 382.396 301.382V296.604H384.364V301.396C384.364 301.614 384.389 301.799 384.439 301.949C384.494 302.1 384.569 302.223 384.665 302.318C384.761 302.414 384.872 302.482 385 302.523C385.132 302.564 385.278 302.585 385.438 302.585C385.843 302.585 386.162 302.503 386.395 302.339C386.632 302.175 386.798 301.951 386.894 301.669C386.994 301.382 387.044 301.063 387.044 300.712ZM394.666 302.387V293.5H396.648V304H394.864L394.666 302.387ZM389.99 300.391V300.247C389.99 299.682 390.054 299.169 390.182 298.709C390.309 298.244 390.496 297.845 390.742 297.513C390.988 297.18 391.291 296.923 391.651 296.74C392.011 296.558 392.422 296.467 392.882 296.467C393.315 296.467 393.693 296.558 394.017 296.74C394.345 296.923 394.623 297.182 394.851 297.52C395.083 297.852 395.27 298.246 395.411 298.702C395.552 299.153 395.655 299.648 395.719 300.186V300.5C395.655 301.015 395.552 301.493 395.411 301.936C395.27 302.378 395.083 302.765 394.851 303.098C394.623 303.426 394.345 303.681 394.017 303.863C393.688 304.046 393.306 304.137 392.868 304.137C392.408 304.137 391.998 304.043 391.638 303.856C391.282 303.67 390.981 303.408 390.735 303.07C390.494 302.733 390.309 302.337 390.182 301.881C390.054 301.425 389.99 300.928 389.99 300.391ZM391.959 300.247V300.391C391.959 300.696 391.982 300.981 392.027 301.245C392.077 301.509 392.157 301.744 392.267 301.949C392.381 302.15 392.526 302.307 392.704 302.421C392.886 302.53 393.107 302.585 393.367 302.585C393.704 302.585 393.982 302.51 394.201 302.359C394.42 302.204 394.586 301.993 394.7 301.724C394.819 301.455 394.887 301.145 394.905 300.794V299.898C394.892 299.611 394.851 299.354 394.782 299.126C394.718 298.894 394.623 298.695 394.495 298.531C394.372 298.367 394.217 298.24 394.03 298.148C393.848 298.057 393.632 298.012 393.381 298.012C393.126 298.012 392.907 298.071 392.725 298.189C392.542 298.303 392.394 298.461 392.28 298.661C392.171 298.862 392.089 299.099 392.034 299.372C391.984 299.641 391.959 299.933 391.959 300.247ZM400.265 296.604V304H398.289V296.604H400.265ZM398.166 294.676C398.166 294.389 398.266 294.152 398.467 293.965C398.667 293.778 398.936 293.685 399.273 293.685C399.606 293.685 399.873 293.778 400.073 293.965C400.278 294.152 400.381 294.389 400.381 294.676C400.381 294.963 400.278 295.2 400.073 295.387C399.873 295.574 399.606 295.667 399.273 295.667C398.936 295.667 398.667 295.574 398.467 295.387C398.266 295.2 398.166 294.963 398.166 294.676ZM401.577 300.377V300.233C401.577 299.691 401.655 299.192 401.81 298.736C401.965 298.276 402.19 297.877 402.486 297.54C402.783 297.203 403.147 296.941 403.58 296.754C404.013 296.562 404.51 296.467 405.07 296.467C405.631 296.467 406.13 296.562 406.567 296.754C407.005 296.941 407.372 297.203 407.668 297.54C407.969 297.877 408.197 298.276 408.352 298.736C408.507 299.192 408.584 299.691 408.584 300.233V300.377C408.584 300.915 408.507 301.414 408.352 301.874C408.197 302.33 407.969 302.729 407.668 303.07C407.372 303.408 407.007 303.67 406.574 303.856C406.141 304.043 405.645 304.137 405.084 304.137C404.523 304.137 404.024 304.043 403.587 303.856C403.154 303.67 402.787 303.408 402.486 303.07C402.19 302.729 401.965 302.33 401.81 301.874C401.655 301.414 401.577 300.915 401.577 300.377ZM403.546 300.233V300.377C403.546 300.687 403.573 300.976 403.628 301.245C403.683 301.514 403.769 301.751 403.888 301.956C404.011 302.157 404.17 302.314 404.366 302.428C404.562 302.542 404.801 302.599 405.084 302.599C405.357 302.599 405.592 302.542 405.788 302.428C405.984 302.314 406.141 302.157 406.26 301.956C406.378 301.751 406.465 301.514 406.52 301.245C406.579 300.976 406.608 300.687 406.608 300.377V300.233C406.608 299.933 406.579 299.65 406.52 299.386C406.465 299.117 406.376 298.88 406.253 298.675C406.134 298.465 405.977 298.301 405.781 298.183C405.585 298.064 405.348 298.005 405.07 298.005C404.792 298.005 404.555 298.064 404.359 298.183C404.168 298.301 404.011 298.465 403.888 298.675C403.769 298.88 403.683 299.117 403.628 299.386C403.573 299.65 403.546 299.933 403.546 300.233ZM416.459 304H414.292L414.306 302.4H416.459C416.997 302.4 417.45 302.28 417.819 302.038C418.188 301.792 418.466 301.434 418.653 300.965C418.845 300.495 418.94 299.928 418.94 299.263V298.777C418.94 298.267 418.886 297.818 418.776 297.431C418.672 297.043 418.514 296.717 418.305 296.453C418.095 296.189 417.838 295.991 417.532 295.858C417.227 295.722 416.876 295.653 416.479 295.653H414.251V294.047H416.479C417.145 294.047 417.753 294.161 418.305 294.389C418.861 294.612 419.341 294.933 419.747 295.353C420.153 295.772 420.465 296.273 420.684 296.856C420.907 297.435 421.019 298.08 421.019 298.791V299.263C421.019 299.969 420.907 300.614 420.684 301.197C420.465 301.781 420.153 302.282 419.747 302.701C419.346 303.116 418.865 303.437 418.305 303.665C417.749 303.888 417.133 304 416.459 304ZM415.454 294.047V304H413.403V294.047H415.454ZM422.071 300.377V300.233C422.071 299.691 422.149 299.192 422.304 298.736C422.459 298.276 422.684 297.877 422.98 297.54C423.277 297.203 423.641 296.941 424.074 296.754C424.507 296.562 425.004 296.467 425.564 296.467C426.125 296.467 426.624 296.562 427.062 296.754C427.499 296.941 427.866 297.203 428.162 297.54C428.463 297.877 428.691 298.276 428.846 298.736C429.001 299.192 429.078 299.691 429.078 300.233V300.377C429.078 300.915 429.001 301.414 428.846 301.874C428.691 302.33 428.463 302.729 428.162 303.07C427.866 303.408 427.501 303.67 427.068 303.856C426.635 304.043 426.139 304.137 425.578 304.137C425.018 304.137 424.519 304.043 424.081 303.856C423.648 303.67 423.281 303.408 422.98 303.07C422.684 302.729 422.459 302.33 422.304 301.874C422.149 301.414 422.071 300.915 422.071 300.377ZM424.04 300.233V300.377C424.04 300.687 424.067 300.976 424.122 301.245C424.177 301.514 424.263 301.751 424.382 301.956C424.505 302.157 424.664 302.314 424.86 302.428C425.056 302.542 425.296 302.599 425.578 302.599C425.852 302.599 426.086 302.542 426.282 302.428C426.478 302.314 426.635 302.157 426.754 301.956C426.872 301.751 426.959 301.514 427.014 301.245C427.073 300.976 427.103 300.687 427.103 300.377V300.233C427.103 299.933 427.073 299.65 427.014 299.386C426.959 299.117 426.87 298.88 426.747 298.675C426.629 298.465 426.471 298.301 426.275 298.183C426.079 298.064 425.842 298.005 425.564 298.005C425.286 298.005 425.049 298.064 424.854 298.183C424.662 298.301 424.505 298.465 424.382 298.675C424.263 298.88 424.177 299.117 424.122 299.386C424.067 299.65 424.04 299.933 424.04 300.233ZM432.4 302.086L433.938 296.604H435.189L434.786 298.757L433.248 304H432.202L432.4 302.086ZM431.621 296.604L432.722 302.079L432.824 304H431.594L429.721 296.604H431.621ZM436.598 301.99L437.671 296.604H439.578L437.705 304H436.481L436.598 301.99ZM435.36 296.604L436.892 302.045L437.104 304H436.051L434.513 298.764L434.123 296.604H435.36ZM442.497 298.183V304H440.528V296.604H442.374L442.497 298.183ZM442.21 300.042H441.677C441.677 299.495 441.747 299.003 441.889 298.565C442.03 298.123 442.228 297.747 442.483 297.438C442.739 297.123 443.042 296.884 443.393 296.72C443.748 296.551 444.145 296.467 444.582 296.467C444.928 296.467 445.245 296.517 445.532 296.617C445.819 296.717 446.065 296.877 446.271 297.096C446.48 297.314 446.64 297.604 446.749 297.964C446.863 298.324 446.92 298.764 446.92 299.283V304H444.938V299.276C444.938 298.948 444.892 298.693 444.801 298.511C444.71 298.328 444.575 298.201 444.397 298.128C444.224 298.05 444.01 298.012 443.755 298.012C443.491 298.012 443.26 298.064 443.064 298.169C442.873 298.274 442.714 298.42 442.586 298.606C442.463 298.789 442.369 299.003 442.306 299.249C442.242 299.495 442.21 299.759 442.21 300.042ZM450.495 293.5V304H448.52V293.5H450.495ZM451.808 300.377V300.233C451.808 299.691 451.885 299.192 452.04 298.736C452.195 298.276 452.421 297.877 452.717 297.54C453.013 297.203 453.378 296.941 453.811 296.754C454.243 296.562 454.74 296.467 455.301 296.467C455.861 296.467 456.36 296.562 456.798 296.754C457.235 296.941 457.602 297.203 457.898 297.54C458.199 297.877 458.427 298.276 458.582 298.736C458.737 299.192 458.814 299.691 458.814 300.233V300.377C458.814 300.915 458.737 301.414 458.582 301.874C458.427 302.33 458.199 302.729 457.898 303.07C457.602 303.408 457.238 303.67 456.805 303.856C456.372 304.043 455.875 304.137 455.314 304.137C454.754 304.137 454.255 304.043 453.817 303.856C453.384 303.67 453.018 303.408 452.717 303.07C452.421 302.729 452.195 302.33 452.04 301.874C451.885 301.414 451.808 300.915 451.808 300.377ZM453.776 300.233V300.377C453.776 300.687 453.804 300.976 453.858 301.245C453.913 301.514 454 301.751 454.118 301.956C454.241 302.157 454.401 302.314 454.597 302.428C454.793 302.542 455.032 302.599 455.314 302.599C455.588 302.599 455.823 302.542 456.019 302.428C456.215 302.314 456.372 302.157 456.49 301.956C456.609 301.751 456.695 301.514 456.75 301.245C456.809 300.976 456.839 300.687 456.839 300.377V300.233C456.839 299.933 456.809 299.65 456.75 299.386C456.695 299.117 456.606 298.88 456.483 298.675C456.365 298.465 456.208 298.301 456.012 298.183C455.816 298.064 455.579 298.005 455.301 298.005C455.023 298.005 454.786 298.064 454.59 298.183C454.398 298.301 454.241 298.465 454.118 298.675C454 298.88 453.913 299.117 453.858 299.386C453.804 299.65 453.776 299.933 453.776 300.233ZM464.017 302.332V299.037C464.017 298.8 463.978 298.597 463.9 298.429C463.823 298.256 463.702 298.121 463.538 298.025C463.379 297.93 463.171 297.882 462.916 297.882C462.697 297.882 462.508 297.921 462.349 297.998C462.189 298.071 462.066 298.178 461.979 298.319C461.893 298.456 461.85 298.618 461.85 298.805H459.881C459.881 298.49 459.954 298.192 460.1 297.909C460.245 297.627 460.457 297.378 460.735 297.164C461.013 296.945 461.344 296.774 461.727 296.651C462.114 296.528 462.547 296.467 463.025 296.467C463.6 296.467 464.11 296.562 464.557 296.754C465.003 296.945 465.354 297.232 465.609 297.615C465.869 297.998 465.999 298.477 465.999 299.051V302.216C465.999 302.621 466.024 302.954 466.074 303.214C466.124 303.469 466.197 303.692 466.293 303.884V304H464.304C464.208 303.799 464.135 303.549 464.085 303.248C464.039 302.943 464.017 302.637 464.017 302.332ZM464.276 299.495L464.29 300.609H463.189C462.93 300.609 462.704 300.639 462.513 300.698C462.321 300.757 462.164 300.842 462.041 300.951C461.918 301.056 461.827 301.179 461.768 301.32C461.713 301.462 461.686 301.617 461.686 301.785C461.686 301.954 461.724 302.106 461.802 302.243C461.879 302.375 461.991 302.48 462.137 302.558C462.283 302.631 462.453 302.667 462.649 302.667C462.946 302.667 463.203 302.608 463.422 302.489C463.641 302.371 463.809 302.225 463.928 302.052C464.051 301.879 464.115 301.715 464.119 301.56L464.639 302.394C464.566 302.58 464.465 302.774 464.338 302.975C464.215 303.175 464.058 303.364 463.866 303.542C463.675 303.715 463.445 303.859 463.176 303.973C462.907 304.082 462.588 304.137 462.219 304.137C461.749 304.137 461.323 304.043 460.94 303.856C460.562 303.665 460.261 303.403 460.038 303.07C459.819 302.733 459.71 302.35 459.71 301.922C459.71 301.535 459.783 301.19 459.929 300.89C460.075 300.589 460.289 300.336 460.571 300.131C460.858 299.921 461.216 299.764 461.645 299.659C462.073 299.55 462.57 299.495 463.135 299.495H464.276ZM471.885 302.387V293.5H473.867V304H472.083L471.885 302.387ZM467.209 300.391V300.247C467.209 299.682 467.273 299.169 467.4 298.709C467.528 298.244 467.715 297.845 467.961 297.513C468.207 297.18 468.51 296.923 468.87 296.74C469.23 296.558 469.64 296.467 470.101 296.467C470.534 296.467 470.912 296.558 471.235 296.74C471.563 296.923 471.841 297.182 472.069 297.52C472.302 297.852 472.489 298.246 472.63 298.702C472.771 299.153 472.874 299.648 472.938 300.186V300.5C472.874 301.015 472.771 301.493 472.63 301.936C472.489 302.378 472.302 302.765 472.069 303.098C471.841 303.426 471.563 303.681 471.235 303.863C470.907 304.046 470.524 304.137 470.087 304.137C469.627 304.137 469.216 304.043 468.856 303.856C468.501 303.67 468.2 303.408 467.954 303.07C467.713 302.733 467.528 302.337 467.4 301.881C467.273 301.425 467.209 300.928 467.209 300.391ZM469.178 300.247V300.391C469.178 300.696 469.201 300.981 469.246 301.245C469.296 301.509 469.376 301.744 469.485 301.949C469.599 302.15 469.745 302.307 469.923 302.421C470.105 302.53 470.326 302.585 470.586 302.585C470.923 302.585 471.201 302.51 471.42 302.359C471.639 302.204 471.805 301.993 471.919 301.724C472.037 301.455 472.106 301.145 472.124 300.794V299.898C472.11 299.611 472.069 299.354 472.001 299.126C471.937 298.894 471.841 298.695 471.714 298.531C471.591 298.367 471.436 298.24 471.249 298.148C471.067 298.057 470.85 298.012 470.6 298.012C470.344 298.012 470.126 298.071 469.943 298.189C469.761 298.303 469.613 298.461 469.499 298.661C469.39 298.862 469.308 299.099 469.253 299.372C469.203 299.641 469.178 299.933 469.178 300.247Z" fill="black"/>
<rect width="74.0635" height="74.0635" rx="20" transform="matrix(0.710889 0.703305 -0.710889 0.703305 -22.3491 306.324)" fill="white"/>
<rect width="74.0635" height="74.0635" rx="20" transform="matrix(0.710889 0.703305 -0.710889 0.703305 42.8613 370.838)" fill="white"/>
<rect width="74.0635" height="74.0635" rx="20" transform="matrix(0.710889 0.703305 -0.710889 0.703305 105.21 306.492)" fill="white"/>
<rect width="74.0635" height="74.0635" rx="20" transform="matrix(0.710889 0.703305 -0.710889 0.703305 38.8242 244.365)" fill="white"/>
<path d="M240.43 213V180.36H262.03V186.648H248.014V195.528H259.342V201.864H248.014V213H240.43ZM265.219 213V188.856H272.563V213H265.219ZM265.219 185.496V179.64H272.563V185.496H265.219ZM277.266 213V188.856H284.562V190.344C285.074 190.024 285.682 189.72 286.386 189.432C287.09 189.112 287.826 188.856 288.594 188.664C289.394 188.44 290.146 188.328 290.85 188.328C293.122 188.328 294.882 188.728 296.13 189.528C297.41 190.296 298.306 191.592 298.818 193.416C299.362 195.208 299.634 197.592 299.634 200.568V213H292.29V201C292.29 199.496 292.194 198.28 292.002 197.352C291.81 196.424 291.474 195.752 290.994 195.336C290.514 194.92 289.826 194.712 288.93 194.712C288.418 194.712 287.89 194.76 287.346 194.856C286.802 194.952 286.29 195.08 285.81 195.24C285.33 195.4 284.93 195.56 284.61 195.72V213H277.266ZM310.751 213.576C308.127 213.576 306.159 212.936 304.847 211.656C303.567 210.376 302.927 208.424 302.927 205.8C302.927 203.944 303.263 202.52 303.935 201.528C304.639 200.504 305.647 199.768 306.959 199.32C308.271 198.872 309.855 198.6 311.711 198.504L317.087 198.072V196.824C317.087 195.864 316.815 195.192 316.271 194.808C315.759 194.392 314.991 194.184 313.967 194.184C313.039 194.184 311.983 194.216 310.799 194.28C309.615 194.344 308.447 194.424 307.295 194.52C306.143 194.616 305.151 194.712 304.319 194.808L304.079 189.72C304.943 189.496 305.967 189.288 307.151 189.096C308.367 188.872 309.631 188.696 310.943 188.568C312.255 188.408 313.487 188.328 314.639 188.328C316.719 188.328 318.479 188.584 319.919 189.096C321.391 189.576 322.511 190.408 323.279 191.592C324.047 192.744 324.431 194.36 324.431 196.44V207C324.527 207.384 324.751 207.688 325.103 207.912C325.487 208.104 325.903 208.248 326.351 208.344L326.207 213.24C325.471 213.304 324.687 213.352 323.855 213.384C323.055 213.416 322.415 213.4 321.935 213.336C321.103 213.24 320.383 213.048 319.775 212.76C319.199 212.44 318.767 212.12 318.479 211.8C317.967 212.024 317.295 212.28 316.463 212.568C315.631 212.856 314.719 213.096 313.727 213.288C312.767 213.48 311.775 213.576 310.751 213.576ZM312.575 208.248C313.119 208.248 313.663 208.184 314.207 208.056C314.783 207.928 315.327 207.784 315.839 207.624C316.351 207.464 316.767 207.32 317.087 207.192V202.44L312.863 202.824C311.967 202.92 311.311 203.208 310.895 203.688C310.479 204.136 310.271 204.776 310.271 205.608C310.271 206.408 310.463 207.048 310.847 207.528C311.231 208.008 311.807 208.248 312.575 208.248ZM329.532 213V188.856H336.828V190.344C337.34 190.024 337.948 189.72 338.652 189.432C339.356 189.112 340.092 188.856 340.86 188.664C341.66 188.44 342.412 188.328 343.116 188.328C345.388 188.328 347.148 188.728 348.396 189.528C349.676 190.296 350.572 191.592 351.084 193.416C351.628 195.208 351.9 197.592 351.9 200.568V213H344.556V201C344.556 199.496 344.46 198.28 344.268 197.352C344.076 196.424 343.74 195.752 343.26 195.336C342.78 194.92 342.092 194.712 341.196 194.712C340.684 194.712 340.156 194.76 339.612 194.856C339.068 194.952 338.556 195.08 338.076 195.24C337.596 195.4 337.196 195.56 336.876 195.72V213H329.532ZM366.568 213.576C363.72 213.576 361.496 213.16 359.896 212.328C358.296 211.464 357.176 210.088 356.536 208.2C355.896 206.312 355.576 203.832 355.576 200.76C355.576 197.656 355.944 195.208 356.68 193.416C357.416 191.592 358.584 190.296 360.184 189.528C361.816 188.728 363.944 188.328 366.568 188.328C367.304 188.328 368.136 188.376 369.064 188.472C369.992 188.568 370.92 188.696 371.848 188.856C372.776 189.016 373.576 189.176 374.248 189.336L374.008 195.192C373.368 195.128 372.648 195.064 371.848 195C371.048 194.936 370.28 194.888 369.544 194.856C368.808 194.792 368.216 194.76 367.768 194.76C366.552 194.76 365.592 194.952 364.888 195.336C364.184 195.72 363.688 196.36 363.4 197.256C363.112 198.12 362.968 199.288 362.968 200.76C362.968 202.296 363.096 203.544 363.352 204.504C363.64 205.432 364.12 206.104 364.792 206.52C365.496 206.904 366.488 207.096 367.768 207.096C368.216 207.096 368.808 207.08 369.544 207.048C370.312 206.984 371.096 206.92 371.896 206.856C372.728 206.792 373.464 206.744 374.104 206.712L374.296 212.52C373.656 212.68 372.872 212.84 371.944 213C371.048 213.128 370.12 213.256 369.16 213.384C368.2 213.512 367.336 213.576 366.568 213.576ZM388.176 213.576C385.456 213.576 383.28 213.128 381.648 212.232C380.048 211.336 378.896 209.976 378.192 208.152C377.52 206.328 377.184 204.024 377.184 201.24C377.184 198.328 377.6 195.928 378.432 194.04C379.296 192.12 380.56 190.696 382.224 189.768C383.888 188.808 385.984 188.328 388.512 188.328C392.224 188.328 395.008 189.224 396.864 191.016C398.752 192.808 399.696 195.64 399.696 199.512L399.312 203.304H384.528C384.56 204.84 384.88 205.992 385.488 206.76C386.128 207.496 387.216 207.864 388.752 207.864C389.744 207.864 390.848 207.848 392.064 207.816C393.312 207.752 394.544 207.688 395.76 207.624C396.976 207.56 398.016 207.496 398.88 207.432L399.024 212.424C398.192 212.584 397.152 212.76 395.904 212.952C394.656 213.112 393.36 213.256 392.016 213.384C390.672 213.512 389.392 213.576 388.176 213.576ZM384.48 198.84H392.352C392.352 196.92 392.048 195.592 391.44 194.856C390.832 194.088 389.856 193.704 388.512 193.704C387.168 193.704 386.16 194.104 385.488 194.904C384.848 195.672 384.512 196.984 384.48 198.84ZM414.149 213V180.36H436.421V186.552H421.733V193.416H433.541V199.56H421.733V206.76H436.421V213H414.149ZM443.85 213L438.474 188.856H446.298L449.85 206.808H451.05L454.65 188.856H462.042L456.666 213H443.85ZM475.706 213.576C472.986 213.576 470.762 213.144 469.034 212.28C467.338 211.384 466.09 209.992 465.29 208.104C464.522 206.216 464.138 203.784 464.138 200.808C464.138 197.864 464.538 195.48 465.338 193.656C466.17 191.832 467.45 190.488 469.178 189.624C470.906 188.76 473.082 188.328 475.706 188.328C478.394 188.328 480.586 188.76 482.282 189.624C484.01 190.488 485.274 191.832 486.074 193.656C486.906 195.48 487.322 197.864 487.322 200.808C487.322 203.784 486.922 206.216 486.122 208.104C485.354 209.992 484.106 211.384 482.378 212.28C480.682 213.144 478.458 213.576 475.706 213.576ZM475.706 207.528C476.89 207.528 477.77 207.304 478.346 206.856C478.954 206.408 479.354 205.688 479.546 204.696C479.77 203.704 479.882 202.408 479.882 200.808C479.882 199.176 479.754 197.896 479.498 196.968C479.242 196.04 478.81 195.368 478.202 194.952C477.626 194.536 476.794 194.328 475.706 194.328C474.65 194.328 473.818 194.536 473.21 194.952C472.602 195.368 472.17 196.056 471.914 197.016C471.658 197.944 471.53 199.208 471.53 200.808C471.53 202.408 471.642 203.704 471.866 204.696C472.09 205.688 472.49 206.408 473.066 206.856C473.674 207.304 474.554 207.528 475.706 207.528ZM491.348 213V179.256H498.692V213H491.348ZM511.356 213.576C509.276 213.576 507.644 213.128 506.46 212.232C505.308 211.304 504.492 209.944 504.012 208.152C503.532 206.36 503.292 204.104 503.292 201.384V188.856H510.636V201.048C510.636 202.584 510.716 203.8 510.876 204.696C511.036 205.592 511.356 206.232 511.836 206.616C512.316 206.968 513.004 207.144 513.9 207.144C514.732 207.144 515.532 207.048 516.3 206.856C517.068 206.632 517.676 206.408 518.124 206.184V188.856H525.468V213H518.172V211.608C517.084 212.184 516.012 212.648 514.956 213C513.932 213.384 512.732 213.576 511.356 213.576ZM538.797 213.576C537.005 213.576 535.549 213.336 534.429 212.856C533.309 212.344 532.493 211.464 531.981 210.216C531.501 208.936 531.261 207.144 531.261 204.84V194.904H528.669V188.856H531.261V182.856H538.605V188.856H544.269V194.904H538.605V203.016C538.605 204.104 538.653 204.952 538.749 205.56C538.877 206.168 539.117 206.6 539.469 206.856C539.821 207.112 540.349 207.24 541.053 207.24C541.245 207.24 541.549 207.224 541.965 207.192C542.381 207.16 542.797 207.144 543.213 207.144C543.661 207.112 543.997 207.08 544.221 207.048L544.413 212.856C543.613 213.016 542.653 213.176 541.533 213.336C540.445 213.496 539.533 213.576 538.797 213.576ZM547.5 213V188.856H554.844V213H547.5ZM547.5 185.496V179.64H554.844V185.496H547.5ZM570.299 213.576C567.579 213.576 565.355 213.144 563.627 212.28C561.931 211.384 560.683 209.992 559.883 208.104C559.115 206.216 558.731 203.784 558.731 200.808C558.731 197.864 559.131 195.48 559.931 193.656C560.763 191.832 562.043 190.488 563.771 189.624C565.499 188.76 567.675 188.328 570.299 188.328C572.987 188.328 575.179 188.76 576.875 189.624C578.603 190.488 579.867 191.832 580.667 193.656C581.499 195.48 581.915 197.864 581.915 200.808C581.915 203.784 581.515 206.216 580.715 208.104C579.947 209.992 578.699 211.384 576.971 212.28C575.275 213.144 573.051 213.576 570.299 213.576ZM570.299 207.528C571.483 207.528 572.363 207.304 572.939 206.856C573.547 206.408 573.947 205.688 574.139 204.696C574.363 203.704 574.475 202.408 574.475 200.808C574.475 199.176 574.347 197.896 574.091 196.968C573.835 196.04 573.403 195.368 572.795 194.952C572.219 194.536 571.387 194.328 570.299 194.328C569.243 194.328 568.411 194.536 567.803 194.952C567.195 195.368 566.763 196.056 566.507 197.016C566.251 197.944 566.123 199.208 566.123 200.808C566.123 202.408 566.235 203.704 566.459 204.696C566.683 205.688 567.083 206.408 567.659 206.856C568.267 207.304 569.147 207.528 570.299 207.528ZM585.797 213V188.856H593.093V190.344C593.605 190.024 594.213 189.72 594.917 189.432C595.621 189.112 596.357 188.856 597.125 188.664C597.925 188.44 598.677 188.328 599.381 188.328C601.653 188.328 603.413 188.728 604.661 189.528C605.941 190.296 606.837 191.592 607.349 193.416C607.893 195.208 608.165 197.592 608.165 200.568V213H600.821V201C600.821 199.496 600.725 198.28 600.533 197.352C600.341 196.424 600.005 195.752 599.525 195.336C599.045 194.92 598.357 194.712 597.461 194.712C596.949 194.712 596.421 194.76 595.877 194.856C595.333 194.952 594.821 195.08 594.341 195.24C593.861 195.4 593.461 195.56 593.141 195.72V213H585.797ZM282.268 263.576C279.708 263.576 277.58 263.256 275.884 262.616C274.22 261.976 272.892 260.984 271.9 259.64C270.94 258.264 270.252 256.52 269.836 254.408C269.452 252.264 269.26 249.688 269.26 246.68C269.26 243.672 269.452 241.096 269.836 238.952C270.252 236.808 270.94 235.064 271.9 233.72C272.892 232.376 274.236 231.384 275.932 230.744C277.66 230.104 279.852 229.784 282.508 229.784C283.532 229.784 284.62 229.848 285.772 229.976C286.924 230.072 288.044 230.216 289.132 230.408C290.252 230.6 291.212 230.792 292.012 230.984L291.82 236.936C291.18 236.84 290.396 236.744 289.468 236.648C288.54 236.552 287.58 236.472 286.588 236.408C285.628 236.312 284.716 236.264 283.852 236.264C282.412 236.264 281.244 236.44 280.348 236.792C279.452 237.144 278.748 237.736 278.236 238.568C277.756 239.368 277.42 240.424 277.228 241.736C277.068 243.048 276.988 244.696 276.988 246.68C276.988 248.632 277.068 250.28 277.228 251.624C277.42 252.936 277.756 253.992 278.236 254.792C278.748 255.592 279.452 256.168 280.348 256.52C281.244 256.872 282.428 257.048 283.9 257.048C285.18 257.048 286.572 256.984 288.076 256.856C289.612 256.728 290.876 256.616 291.868 256.52L292.012 262.424C291.276 262.584 290.364 262.76 289.276 262.952C288.22 263.144 287.068 263.288 285.82 263.384C284.604 263.512 283.42 263.576 282.268 263.576ZM306.417 263.576C303.697 263.576 301.473 263.144 299.745 262.28C298.049 261.384 296.801 259.992 296.001 258.104C295.233 256.216 294.849 253.784 294.849 250.808C294.849 247.864 295.249 245.48 296.049 243.656C296.881 241.832 298.161 240.488 299.889 239.624C301.617 238.76 303.793 238.328 306.417 238.328C309.105 238.328 311.297 238.76 312.993 239.624C314.721 240.488 315.985 241.832 316.785 243.656C317.617 245.48 318.033 247.864 318.033 250.808C318.033 253.784 317.633 256.216 316.833 258.104C316.065 259.992 314.817 261.384 313.089 262.28C311.393 263.144 309.169 263.576 306.417 263.576ZM306.417 257.528C307.601 257.528 308.481 257.304 309.057 256.856C309.665 256.408 310.065 255.688 310.257 254.696C310.481 253.704 310.593 252.408 310.593 250.808C310.593 249.176 310.465 247.896 310.209 246.968C309.953 246.04 309.521 245.368 308.913 244.952C308.337 244.536 307.505 244.328 306.417 244.328C305.361 244.328 304.529 244.536 303.921 244.952C303.313 245.368 302.881 246.056 302.625 247.016C302.369 247.944 302.241 249.208 302.241 250.808C302.241 252.408 302.353 253.704 302.577 254.696C302.801 255.688 303.201 256.408 303.777 256.856C304.385 257.304 305.265 257.528 306.417 257.528ZM321.915 263V238.856H329.211V240.344C329.723 240.024 330.331 239.72 331.035 239.432C331.739 239.112 332.475 238.856 333.243 238.664C334.043 238.44 334.795 238.328 335.499 238.328C337.771 238.328 339.531 238.728 340.779 239.528C342.059 240.296 342.955 241.592 343.467 243.416C344.011 245.208 344.283 247.592 344.283 250.568V263H336.939V251C336.939 249.496 336.843 248.28 336.651 247.352C336.459 246.424 336.123 245.752 335.643 245.336C335.163 244.92 334.475 244.712 333.579 244.712C333.067 244.712 332.539 244.76 331.995 244.856C331.451 244.952 330.939 245.08 330.459 245.24C329.979 245.4 329.579 245.56 329.259 245.72V263H321.915ZM349.639 263V244.904H347.527V238.856H349.639V237.752C349.639 235.48 349.863 233.688 350.311 232.376C350.759 231.032 351.527 230.088 352.615 229.544C353.703 228.968 355.175 228.68 357.031 228.68C357.639 228.68 358.311 228.712 359.047 228.776C359.783 228.808 360.487 228.872 361.159 228.968C361.831 229.032 362.359 229.096 362.743 229.16L362.695 234.68C362.215 234.68 361.687 234.68 361.111 234.68C360.535 234.648 360.055 234.632 359.671 234.632C358.999 234.632 358.455 234.728 358.039 234.92C357.655 235.112 357.383 235.416 357.223 235.832C357.063 236.248 356.983 236.84 356.983 237.608V238.856H362.311V244.904H356.983V263H349.639ZM375.45 263.576C372.73 263.576 370.554 263.128 368.922 262.232C367.322 261.336 366.17 259.976 365.466 258.152C364.794 256.328 364.458 254.024 364.458 251.24C364.458 248.328 364.874 245.928 365.706 244.04C366.57 242.12 367.834 240.696 369.498 239.768C371.162 238.808 373.258 238.328 375.786 238.328C379.498 238.328 382.282 239.224 384.138 241.016C386.026 242.808 386.97 245.64 386.97 249.512L386.586 253.304H371.802C371.834 254.84 372.154 255.992 372.762 256.76C373.402 257.496 374.49 257.864 376.026 257.864C377.018 257.864 378.122 257.848 379.338 257.816C380.586 257.752 381.818 257.688 383.034 257.624C384.25 257.56 385.29 257.496 386.154 257.432L386.298 262.424C385.466 262.584 384.426 262.76 383.178 262.952C381.93 263.112 380.634 263.256 379.29 263.384C377.946 263.512 376.666 263.576 375.45 263.576ZM371.754 248.84H379.626C379.626 246.92 379.322 245.592 378.714 244.856C378.106 244.088 377.13 243.704 375.786 243.704C374.442 243.704 373.434 244.104 372.762 244.904C372.122 245.672 371.786 246.984 371.754 248.84ZM390.68 263V238.856H398.024V241.592C398.536 241.176 399.176 240.744 399.944 240.296C400.712 239.816 401.528 239.384 402.392 239C403.256 238.616 404.088 238.376 404.888 238.28V245.288C404.12 245.384 403.304 245.576 402.44 245.864C401.576 246.12 400.76 246.424 399.992 246.776C399.224 247.096 398.568 247.4 398.024 247.688V263H390.68ZM418.059 263.576C415.339 263.576 413.163 263.128 411.531 262.232C409.931 261.336 408.779 259.976 408.075 258.152C407.403 256.328 407.067 254.024 407.067 251.24C407.067 248.328 407.483 245.928 408.315 244.04C409.179 242.12 410.443 240.696 412.107 239.768C413.771 238.808 415.867 238.328 418.395 238.328C422.107 238.328 424.891 239.224 426.747 241.016C428.635 242.808 429.579 245.64 429.579 249.512L429.195 253.304H414.411C414.443 254.84 414.763 255.992 415.371 256.76C416.011 257.496 417.099 257.864 418.635 257.864C419.627 257.864 420.731 257.848 421.947 257.816C423.195 257.752 424.427 257.688 425.643 257.624C426.859 257.56 427.899 257.496 428.763 257.432L428.907 262.424C428.075 262.584 427.035 262.76 425.787 262.952C424.539 263.112 423.243 263.256 421.899 263.384C420.555 263.512 419.275 263.576 418.059 263.576ZM414.363 248.84H422.235C422.235 246.92 421.931 245.592 421.323 244.856C420.715 244.088 419.739 243.704 418.395 243.704C417.051 243.704 416.043 244.104 415.371 244.904C414.731 245.672 414.395 246.984 414.363 248.84ZM433.29 263V238.856H440.586V240.344C441.098 240.024 441.706 239.72 442.41 239.432C443.114 239.112 443.85 238.856 444.618 238.664C445.418 238.44 446.17 238.328 446.874 238.328C449.146 238.328 450.906 238.728 452.154 239.528C453.434 240.296 454.33 241.592 454.842 243.416C455.386 245.208 455.658 247.592 455.658 250.568V263H448.314V251C448.314 249.496 448.218 248.28 448.026 247.352C447.834 246.424 447.498 245.752 447.018 245.336C446.538 244.92 445.85 244.712 444.954 244.712C444.442 244.712 443.914 244.76 443.37 244.856C442.826 244.952 442.314 245.08 441.834 245.24C441.354 245.4 440.954 245.56 440.634 245.72V263H433.29ZM470.326 263.576C467.478 263.576 465.254 263.16 463.654 262.328C462.054 261.464 460.934 260.088 460.294 258.2C459.654 256.312 459.334 253.832 459.334 250.76C459.334 247.656 459.702 245.208 460.438 243.416C461.174 241.592 462.342 240.296 463.942 239.528C465.574 238.728 467.702 238.328 470.326 238.328C471.062 238.328 471.894 238.376 472.822 238.472C473.75 238.568 474.678 238.696 475.606 238.856C476.534 239.016 477.334 239.176 478.006 239.336L477.766 245.192C477.126 245.128 476.406 245.064 475.606 245C474.806 244.936 474.038 244.888 473.302 244.856C472.566 244.792 471.974 244.76 471.526 244.76C470.31 244.76 469.35 244.952 468.646 245.336C467.942 245.72 467.446 246.36 467.158 247.256C466.87 248.12 466.726 249.288 466.726 250.76C466.726 252.296 466.854 253.544 467.11 254.504C467.398 255.432 467.878 256.104 468.55 256.52C469.254 256.904 470.246 257.096 471.526 257.096C471.974 257.096 472.566 257.08 473.302 257.048C474.07 256.984 474.854 256.92 475.654 256.856C476.486 256.792 477.222 256.744 477.862 256.712L478.054 262.52C477.414 262.68 476.63 262.84 475.702 263C474.806 263.128 473.878 263.256 472.918 263.384C471.958 263.512 471.094 263.576 470.326 263.576ZM491.934 263.576C489.214 263.576 487.038 263.128 485.406 262.232C483.806 261.336 482.654 259.976 481.95 258.152C481.278 256.328 480.942 254.024 480.942 251.24C480.942 248.328 481.358 245.928 482.19 244.04C483.054 242.12 484.318 240.696 485.982 239.768C487.646 238.808 489.742 238.328 492.27 238.328C495.982 238.328 498.766 239.224 500.622 241.016C502.51 242.808 503.454 245.64 503.454 249.512L503.07 253.304H488.286C488.318 254.84 488.638 255.992 489.246 256.76C489.886 257.496 490.974 257.864 492.51 257.864C493.502 257.864 494.606 257.848 495.822 257.816C497.07 257.752 498.302 257.688 499.518 257.624C500.734 257.56 501.774 257.496 502.638 257.432L502.782 262.424C501.95 262.584 500.91 262.76 499.662 262.952C498.414 263.112 497.118 263.256 495.774 263.384C494.43 263.512 493.15 263.576 491.934 263.576ZM488.238 248.84H496.11C496.11 246.92 495.806 245.592 495.198 244.856C494.59 244.088 493.614 243.704 492.27 243.704C490.926 243.704 489.918 244.104 489.246 244.904C488.606 245.672 488.27 246.984 488.238 248.84ZM528.371 263V239.432L521.027 243.368L518.723 237.944L529.379 231.368H535.859V263H528.371ZM544.052 263V255.368H551.684V263H544.052ZM567.187 263.576C565.075 263.576 563.251 263.288 561.715 262.712C560.211 262.104 558.963 261.16 557.971 259.88C557.011 258.6 556.291 256.936 555.811 254.888C555.331 252.808 555.091 250.312 555.091 247.4C555.091 244.36 555.331 241.784 555.811 239.672C556.291 237.56 557.027 235.848 558.019 234.536C559.011 233.224 560.259 232.264 561.763 231.656C563.267 231.048 565.059 230.744 567.139 230.744C569.315 230.744 571.155 231.048 572.659 231.656C574.195 232.264 575.443 233.224 576.403 234.536C577.395 235.848 578.115 237.56 578.563 239.672C579.011 241.784 579.235 244.36 579.235 247.4C579.235 251.304 578.819 254.44 577.987 256.808C577.155 259.176 575.843 260.904 574.051 261.992C572.291 263.048 570.003 263.576 567.187 263.576ZM567.187 257.24C567.955 257.24 568.611 257.112 569.155 256.856C569.731 256.568 570.211 256.072 570.595 255.368C570.979 254.664 571.251 253.672 571.411 252.392C571.603 251.08 571.699 249.416 571.699 247.4C571.699 245.288 571.603 243.56 571.411 242.216C571.251 240.872 570.995 239.832 570.643 239.096C570.291 238.328 569.827 237.8 569.251 237.512C568.707 237.224 568.019 237.08 567.187 237.08C566.387 237.08 565.699 237.224 565.123 237.512C564.547 237.8 564.067 238.312 563.683 239.048C563.331 239.784 563.059 240.84 562.867 242.216C562.707 243.56 562.627 245.288 562.627 247.4C562.627 249.416 562.723 251.08 562.915 252.392C563.107 253.672 563.395 254.664 563.779 255.368C564.163 256.072 564.627 256.568 565.171 256.856C565.747 257.112 566.419 257.24 567.187 257.24Z" fill="white"/>
</g>
<path d="M317.353 336.27L318.85 334.403L316.676 333.788L317.086 332.585L319.219 333.433L319.089 331.047H320.415L320.271 333.48L322.363 332.64L322.767 333.863L320.559 334.479L322.008 336.304L320.935 337.056L319.677 335.06L318.426 336.994L317.353 336.27ZM327.237 333.604V334.998H322.931V333.604H327.237ZM323.997 331.778H325.966V338.771C325.966 338.986 325.993 339.15 326.048 339.264C326.107 339.378 326.194 339.457 326.308 339.503C326.422 339.544 326.565 339.564 326.738 339.564C326.861 339.564 326.971 339.56 327.066 339.551C327.167 339.537 327.251 339.523 327.319 339.51L327.326 340.959C327.158 341.014 326.975 341.057 326.779 341.089C326.583 341.121 326.367 341.137 326.13 341.137C325.697 341.137 325.319 341.066 324.995 340.925C324.676 340.779 324.43 340.547 324.257 340.228C324.084 339.909 323.997 339.489 323.997 338.97V331.778ZM330.279 330.5V341H328.311V330.5H330.279ZM329.999 337.042H329.459C329.464 336.527 329.532 336.053 329.664 335.62C329.796 335.183 329.985 334.804 330.231 334.485C330.478 334.162 330.771 333.911 331.113 333.733C331.46 333.556 331.842 333.467 332.262 333.467C332.626 333.467 332.957 333.519 333.253 333.624C333.554 333.724 333.811 333.888 334.025 334.116C334.244 334.34 334.413 334.633 334.531 334.998C334.65 335.363 334.709 335.805 334.709 336.324V341H332.727V336.311C332.727 335.982 332.679 335.725 332.583 335.538C332.492 335.347 332.357 335.212 332.18 335.135C332.007 335.053 331.792 335.012 331.537 335.012C331.255 335.012 331.013 335.064 330.812 335.169C330.617 335.274 330.459 335.42 330.341 335.606C330.222 335.789 330.136 336.003 330.081 336.249C330.026 336.495 329.999 336.759 329.999 337.042ZM338.284 333.604V341H336.309V333.604H338.284ZM336.186 331.676C336.186 331.389 336.286 331.152 336.486 330.965C336.687 330.778 336.956 330.685 337.293 330.685C337.626 330.685 337.892 330.778 338.093 330.965C338.298 331.152 338.4 331.389 338.4 331.676C338.4 331.963 338.298 332.2 338.093 332.387C337.892 332.574 337.626 332.667 337.293 332.667C336.956 332.667 336.687 332.574 336.486 332.387C336.286 332.2 336.186 331.963 336.186 331.676ZM343.91 338.956C343.91 338.815 343.869 338.687 343.787 338.573C343.705 338.459 343.552 338.354 343.329 338.259C343.11 338.159 342.794 338.067 342.379 337.985C342.005 337.903 341.657 337.801 341.333 337.678C341.014 337.55 340.736 337.397 340.499 337.22C340.267 337.042 340.084 336.832 339.952 336.591C339.82 336.345 339.754 336.064 339.754 335.75C339.754 335.44 339.82 335.148 339.952 334.875C340.089 334.602 340.283 334.36 340.533 334.15C340.788 333.936 341.098 333.77 341.463 333.651C341.832 333.528 342.247 333.467 342.707 333.467C343.35 333.467 343.901 333.569 344.361 333.774C344.826 333.979 345.182 334.262 345.428 334.622C345.678 334.978 345.804 335.383 345.804 335.839H343.835C343.835 335.647 343.794 335.477 343.712 335.326C343.634 335.171 343.511 335.05 343.343 334.964C343.179 334.873 342.965 334.827 342.7 334.827C342.481 334.827 342.292 334.866 342.133 334.943C341.973 335.016 341.85 335.117 341.764 335.244C341.682 335.367 341.641 335.504 341.641 335.654C341.641 335.768 341.663 335.871 341.709 335.962C341.759 336.049 341.839 336.128 341.948 336.201C342.058 336.274 342.199 336.342 342.372 336.406C342.55 336.465 342.769 336.52 343.028 336.57C343.562 336.68 344.038 336.823 344.457 337.001C344.876 337.174 345.209 337.411 345.455 337.712C345.701 338.008 345.824 338.398 345.824 338.881C345.824 339.209 345.751 339.51 345.605 339.783C345.46 340.057 345.25 340.296 344.977 340.501C344.703 340.701 344.375 340.859 343.992 340.973C343.614 341.082 343.188 341.137 342.714 341.137C342.026 341.137 341.442 341.014 340.964 340.768C340.49 340.521 340.13 340.209 339.884 339.831C339.642 339.448 339.521 339.056 339.521 338.655H341.388C341.397 338.924 341.465 339.141 341.593 339.305C341.725 339.469 341.891 339.587 342.092 339.66C342.297 339.733 342.518 339.77 342.755 339.77C343.01 339.77 343.222 339.735 343.391 339.667C343.559 339.594 343.687 339.498 343.773 339.38C343.865 339.257 343.91 339.116 343.91 338.956ZM352.667 333.604V341H350.691V333.604H352.667ZM350.568 331.676C350.568 331.389 350.669 331.152 350.869 330.965C351.07 330.778 351.339 330.685 351.676 330.685C352.008 330.685 352.275 330.778 352.476 330.965C352.681 331.152 352.783 331.389 352.783 331.676C352.783 331.963 352.681 332.2 352.476 332.387C352.275 332.574 352.008 332.667 351.676 332.667C351.339 332.667 351.07 332.574 350.869 332.387C350.669 332.2 350.568 331.963 350.568 331.676ZM358.293 338.956C358.293 338.815 358.252 338.687 358.17 338.573C358.088 338.459 357.935 338.354 357.712 338.259C357.493 338.159 357.176 338.067 356.762 337.985C356.388 337.903 356.039 337.801 355.716 337.678C355.397 337.55 355.119 337.397 354.882 337.22C354.649 337.042 354.467 336.832 354.335 336.591C354.203 336.345 354.137 336.064 354.137 335.75C354.137 335.44 354.203 335.148 354.335 334.875C354.472 334.602 354.665 334.36 354.916 334.15C355.171 333.936 355.481 333.77 355.846 333.651C356.215 333.528 356.63 333.467 357.09 333.467C357.732 333.467 358.284 333.569 358.744 333.774C359.209 333.979 359.564 334.262 359.811 334.622C360.061 334.978 360.187 335.383 360.187 335.839H358.218C358.218 335.647 358.177 335.477 358.095 335.326C358.017 335.171 357.894 335.05 357.726 334.964C357.562 334.873 357.347 334.827 357.083 334.827C356.864 334.827 356.675 334.866 356.516 334.943C356.356 335.016 356.233 335.117 356.146 335.244C356.064 335.367 356.023 335.504 356.023 335.654C356.023 335.768 356.046 335.871 356.092 335.962C356.142 336.049 356.222 336.128 356.331 336.201C356.44 336.274 356.582 336.342 356.755 336.406C356.933 336.465 357.151 336.52 357.411 336.57C357.944 336.68 358.421 336.823 358.84 337.001C359.259 337.174 359.592 337.411 359.838 337.712C360.084 338.008 360.207 338.398 360.207 338.881C360.207 339.209 360.134 339.51 359.988 339.783C359.842 340.057 359.633 340.296 359.359 340.501C359.086 340.701 358.758 340.859 358.375 340.973C357.997 341.082 357.571 341.137 357.097 341.137C356.409 341.137 355.825 341.014 355.347 340.768C354.873 340.521 354.513 340.209 354.267 339.831C354.025 339.448 353.904 339.056 353.904 338.655H355.771C355.78 338.924 355.848 339.141 355.976 339.305C356.108 339.469 356.274 339.587 356.475 339.66C356.68 339.733 356.901 339.77 357.138 339.77C357.393 339.77 357.605 339.735 357.773 339.667C357.942 339.594 358.07 339.498 358.156 339.38C358.247 339.257 358.293 339.116 358.293 338.956ZM365.081 333.604H367.057V341.444C367.057 341.991 366.956 342.454 366.756 342.832C366.555 343.21 366.266 343.497 365.888 343.693C365.509 343.889 365.051 343.987 364.514 343.987C364.345 343.987 364.181 343.978 364.021 343.96C363.857 343.942 363.689 343.912 363.516 343.871L363.522 342.36C363.632 342.379 363.739 342.392 363.844 342.401C363.944 342.415 364.047 342.422 364.151 342.422C364.356 342.422 364.527 342.388 364.664 342.319C364.801 342.251 364.903 342.144 364.972 341.998C365.045 341.857 365.081 341.672 365.081 341.444V333.604ZM364.924 331.676C364.924 331.389 365.024 331.152 365.225 330.965C365.43 330.778 365.699 330.685 366.031 330.685C366.368 330.685 366.637 330.778 366.838 330.965C367.038 331.152 367.139 331.389 367.139 331.676C367.139 331.963 367.038 332.2 366.838 332.387C366.637 332.574 366.368 332.667 366.031 332.667C365.699 332.667 365.43 332.574 365.225 332.387C365.024 332.2 364.924 331.963 364.924 331.676ZM372.997 339.229V333.604H374.966V341H373.113L372.997 339.229ZM373.216 337.712L373.797 337.698C373.797 338.19 373.74 338.648 373.626 339.072C373.512 339.492 373.341 339.856 373.113 340.166C372.885 340.471 372.598 340.711 372.252 340.884C371.906 341.052 371.498 341.137 371.028 341.137C370.668 341.137 370.336 341.087 370.03 340.986C369.729 340.882 369.47 340.72 369.251 340.501C369.037 340.278 368.868 339.993 368.745 339.646C368.627 339.296 368.567 338.874 368.567 338.382V333.604H370.536V338.396C370.536 338.614 370.561 338.799 370.611 338.949C370.666 339.1 370.741 339.223 370.837 339.318C370.933 339.414 371.044 339.482 371.172 339.523C371.304 339.564 371.45 339.585 371.609 339.585C372.015 339.585 372.334 339.503 372.566 339.339C372.803 339.175 372.97 338.951 373.065 338.669C373.166 338.382 373.216 338.063 373.216 337.712ZM380.469 338.956C380.469 338.815 380.428 338.687 380.346 338.573C380.264 338.459 380.111 338.354 379.888 338.259C379.669 338.159 379.352 338.067 378.938 337.985C378.564 337.903 378.215 337.801 377.892 337.678C377.573 337.55 377.295 337.397 377.058 337.22C376.825 337.042 376.643 336.832 376.511 336.591C376.379 336.345 376.312 336.064 376.312 335.75C376.312 335.44 376.379 335.148 376.511 334.875C376.647 334.602 376.841 334.36 377.092 334.15C377.347 333.936 377.657 333.77 378.021 333.651C378.391 333.528 378.805 333.467 379.266 333.467C379.908 333.467 380.46 333.569 380.92 333.774C381.385 333.979 381.74 334.262 381.986 334.622C382.237 334.978 382.362 335.383 382.362 335.839H380.394C380.394 335.647 380.353 335.477 380.271 335.326C380.193 335.171 380.07 335.05 379.901 334.964C379.737 334.873 379.523 334.827 379.259 334.827C379.04 334.827 378.851 334.866 378.691 334.943C378.532 335.016 378.409 335.117 378.322 335.244C378.24 335.367 378.199 335.504 378.199 335.654C378.199 335.768 378.222 335.871 378.268 335.962C378.318 336.049 378.397 336.128 378.507 336.201C378.616 336.274 378.757 336.342 378.931 336.406C379.108 336.465 379.327 336.52 379.587 336.57C380.12 336.68 380.596 336.823 381.016 337.001C381.435 337.174 381.768 337.411 382.014 337.712C382.26 338.008 382.383 338.398 382.383 338.881C382.383 339.209 382.31 339.51 382.164 339.783C382.018 340.057 381.809 340.296 381.535 340.501C381.262 340.701 380.934 340.859 380.551 340.973C380.173 341.082 379.746 341.137 379.272 341.137C378.584 341.137 378.001 341.014 377.522 340.768C377.049 340.521 376.688 340.209 376.442 339.831C376.201 339.448 376.08 339.056 376.08 338.655H377.946C377.955 338.924 378.024 339.141 378.151 339.305C378.284 339.469 378.45 339.587 378.65 339.66C378.855 339.733 379.076 339.77 379.313 339.77C379.569 339.77 379.781 339.735 379.949 339.667C380.118 339.594 380.245 339.498 380.332 339.38C380.423 339.257 380.469 339.116 380.469 338.956ZM387.284 333.604V334.998H382.978V333.604H387.284ZM384.044 331.778H386.013V338.771C386.013 338.986 386.04 339.15 386.095 339.264C386.154 339.378 386.241 339.457 386.354 339.503C386.468 339.544 386.612 339.564 386.785 339.564C386.908 339.564 387.018 339.56 387.113 339.551C387.214 339.537 387.298 339.523 387.366 339.51L387.373 340.959C387.204 341.014 387.022 341.057 386.826 341.089C386.63 341.121 386.414 341.137 386.177 341.137C385.744 341.137 385.366 341.066 385.042 340.925C384.723 340.779 384.477 340.547 384.304 340.228C384.131 339.909 384.044 339.489 384.044 338.97V331.778ZM395.884 339.332V336.037C395.884 335.8 395.845 335.597 395.768 335.429C395.69 335.256 395.569 335.121 395.405 335.025C395.246 334.93 395.038 334.882 394.783 334.882C394.564 334.882 394.375 334.921 394.216 334.998C394.056 335.071 393.933 335.178 393.847 335.319C393.76 335.456 393.717 335.618 393.717 335.805H391.748C391.748 335.49 391.821 335.192 391.967 334.909C392.113 334.627 392.325 334.378 392.603 334.164C392.881 333.945 393.211 333.774 393.594 333.651C393.981 333.528 394.414 333.467 394.893 333.467C395.467 333.467 395.977 333.562 396.424 333.754C396.87 333.945 397.221 334.232 397.477 334.615C397.736 334.998 397.866 335.477 397.866 336.051V339.216C397.866 339.621 397.891 339.954 397.941 340.214C397.992 340.469 398.064 340.692 398.16 340.884V341H396.171C396.075 340.799 396.002 340.549 395.952 340.248C395.907 339.943 395.884 339.637 395.884 339.332ZM396.144 336.495L396.157 337.609H395.057C394.797 337.609 394.571 337.639 394.38 337.698C394.188 337.757 394.031 337.842 393.908 337.951C393.785 338.056 393.694 338.179 393.635 338.32C393.58 338.462 393.553 338.617 393.553 338.785C393.553 338.954 393.591 339.106 393.669 339.243C393.746 339.375 393.858 339.48 394.004 339.558C394.15 339.631 394.321 339.667 394.517 339.667C394.813 339.667 395.07 339.608 395.289 339.489C395.508 339.371 395.676 339.225 395.795 339.052C395.918 338.879 395.982 338.715 395.986 338.56L396.506 339.394C396.433 339.58 396.333 339.774 396.205 339.975C396.082 340.175 395.925 340.364 395.733 340.542C395.542 340.715 395.312 340.859 395.043 340.973C394.774 341.082 394.455 341.137 394.086 341.137C393.617 341.137 393.19 341.043 392.808 340.856C392.429 340.665 392.129 340.403 391.905 340.07C391.687 339.733 391.577 339.35 391.577 338.922C391.577 338.535 391.65 338.19 391.796 337.89C391.942 337.589 392.156 337.336 392.438 337.131C392.726 336.921 393.083 336.764 393.512 336.659C393.94 336.55 394.437 336.495 395.002 336.495H396.144ZM402.87 330.5H404.839V339.305L404.641 341H402.87V330.5ZM409.521 337.227V337.37C409.521 337.922 409.462 338.427 409.344 338.888C409.23 339.348 409.052 339.747 408.811 340.084C408.569 340.417 408.268 340.676 407.908 340.863C407.553 341.046 407.133 341.137 406.65 341.137C406.199 341.137 405.807 341.046 405.475 340.863C405.146 340.681 404.871 340.424 404.647 340.091C404.424 339.758 404.244 339.368 404.107 338.922C403.971 338.475 403.868 337.988 403.8 337.459V337.145C403.868 336.616 403.971 336.128 404.107 335.682C404.244 335.235 404.424 334.845 404.647 334.513C404.871 334.18 405.146 333.923 405.475 333.74C405.803 333.558 406.19 333.467 406.637 333.467C407.124 333.467 407.548 333.56 407.908 333.747C408.273 333.929 408.574 334.189 408.811 334.526C409.052 334.859 409.23 335.256 409.344 335.716C409.462 336.172 409.521 336.675 409.521 337.227ZM407.553 337.37V337.227C407.553 336.926 407.53 336.643 407.484 336.379C407.443 336.11 407.37 335.875 407.266 335.675C407.161 335.47 407.017 335.308 406.835 335.189C406.657 335.071 406.427 335.012 406.145 335.012C405.876 335.012 405.648 335.057 405.461 335.148C405.274 335.24 405.119 335.367 404.996 335.531C404.878 335.695 404.789 335.891 404.729 336.119C404.67 336.342 404.634 336.589 404.62 336.857V337.753C404.634 338.113 404.693 338.432 404.798 338.71C404.907 338.983 405.071 339.2 405.29 339.359C405.513 339.514 405.803 339.592 406.158 339.592C406.436 339.592 406.666 339.537 406.849 339.428C407.031 339.318 407.172 339.163 407.272 338.963C407.377 338.762 407.45 338.528 407.491 338.259C407.532 337.985 407.553 337.689 407.553 337.37ZM414.737 339.332V336.037C414.737 335.8 414.699 335.597 414.621 335.429C414.544 335.256 414.423 335.121 414.259 335.025C414.099 334.93 413.892 334.882 413.637 334.882C413.418 334.882 413.229 334.921 413.069 334.998C412.91 335.071 412.787 335.178 412.7 335.319C412.614 335.456 412.57 335.618 412.57 335.805H410.602C410.602 335.49 410.674 335.192 410.82 334.909C410.966 334.627 411.178 334.378 411.456 334.164C411.734 333.945 412.064 333.774 412.447 333.651C412.835 333.528 413.268 333.467 413.746 333.467C414.32 333.467 414.831 333.562 415.277 333.754C415.724 333.945 416.075 334.232 416.33 334.615C416.59 334.998 416.72 335.477 416.72 336.051V339.216C416.72 339.621 416.745 339.954 416.795 340.214C416.845 340.469 416.918 340.692 417.014 340.884V341H415.024C414.929 340.799 414.856 340.549 414.806 340.248C414.76 339.943 414.737 339.637 414.737 339.332ZM414.997 336.495L415.011 337.609H413.91C413.65 337.609 413.425 337.639 413.233 337.698C413.042 337.757 412.885 337.842 412.762 337.951C412.639 338.056 412.548 338.179 412.488 338.32C412.434 338.462 412.406 338.617 412.406 338.785C412.406 338.954 412.445 339.106 412.522 339.243C412.6 339.375 412.712 339.48 412.857 339.558C413.003 339.631 413.174 339.667 413.37 339.667C413.666 339.667 413.924 339.608 414.143 339.489C414.361 339.371 414.53 339.225 414.648 339.052C414.771 338.879 414.835 338.715 414.84 338.56L415.359 339.394C415.286 339.58 415.186 339.774 415.059 339.975C414.936 340.175 414.778 340.364 414.587 340.542C414.396 340.715 414.165 340.859 413.896 340.973C413.628 341.082 413.309 341.137 412.939 341.137C412.47 341.137 412.044 341.043 411.661 340.856C411.283 340.665 410.982 340.403 410.759 340.07C410.54 339.733 410.431 339.35 410.431 338.922C410.431 338.535 410.504 338.19 410.649 337.89C410.795 337.589 411.009 337.336 411.292 337.131C411.579 336.921 411.937 336.764 412.365 336.659C412.794 336.55 413.29 336.495 413.855 336.495H414.997ZM420.165 335.183V341H418.196V333.604H420.042L420.165 335.183ZM419.878 337.042H419.345C419.345 336.495 419.415 336.003 419.557 335.565C419.698 335.123 419.896 334.747 420.151 334.438C420.407 334.123 420.71 333.884 421.061 333.72C421.416 333.551 421.812 333.467 422.25 333.467C422.596 333.467 422.913 333.517 423.2 333.617C423.487 333.717 423.733 333.877 423.938 334.096C424.148 334.314 424.308 334.604 424.417 334.964C424.531 335.324 424.588 335.764 424.588 336.283V341H422.605V336.276C422.605 335.948 422.56 335.693 422.469 335.511C422.378 335.328 422.243 335.201 422.065 335.128C421.892 335.05 421.678 335.012 421.423 335.012C421.159 335.012 420.928 335.064 420.732 335.169C420.541 335.274 420.382 335.42 420.254 335.606C420.131 335.789 420.037 336.003 419.974 336.249C419.91 336.495 419.878 336.759 419.878 337.042ZM428.013 335.183V341H426.044V333.604H427.89L428.013 335.183ZM427.726 337.042H427.192C427.192 336.495 427.263 336.003 427.404 335.565C427.546 335.123 427.744 334.747 427.999 334.438C428.254 334.123 428.557 333.884 428.908 333.72C429.264 333.551 429.66 333.467 430.098 333.467C430.444 333.467 430.761 333.517 431.048 333.617C431.335 333.717 431.581 333.877 431.786 334.096C431.996 334.314 432.155 334.604 432.265 334.964C432.379 335.324 432.436 335.764 432.436 336.283V341H430.453V336.276C430.453 335.948 430.408 335.693 430.316 335.511C430.225 335.328 430.091 335.201 429.913 335.128C429.74 335.05 429.526 335.012 429.271 335.012C429.006 335.012 428.776 335.064 428.58 335.169C428.389 335.274 428.229 335.42 428.102 335.606C427.979 335.789 427.885 336.003 427.821 336.249C427.757 336.495 427.726 336.759 427.726 337.042ZM437.337 341.137C436.763 341.137 436.248 341.046 435.792 340.863C435.336 340.676 434.949 340.419 434.63 340.091C434.315 339.763 434.074 339.382 433.905 338.949C433.737 338.512 433.652 338.047 433.652 337.555V337.281C433.652 336.721 433.732 336.208 433.892 335.743C434.051 335.278 434.279 334.875 434.575 334.533C434.876 334.191 435.241 333.929 435.669 333.747C436.097 333.56 436.58 333.467 437.118 333.467C437.642 333.467 438.107 333.553 438.513 333.727C438.918 333.9 439.258 334.146 439.531 334.465C439.809 334.784 440.019 335.167 440.16 335.613C440.301 336.055 440.372 336.548 440.372 337.09V337.91H434.493V336.598H438.438V336.447C438.438 336.174 438.387 335.93 438.287 335.716C438.191 335.497 438.046 335.324 437.85 335.196C437.654 335.069 437.403 335.005 437.098 335.005C436.838 335.005 436.615 335.062 436.428 335.176C436.241 335.29 436.088 335.449 435.97 335.654C435.856 335.859 435.769 336.101 435.71 336.379C435.655 336.652 435.628 336.953 435.628 337.281V337.555C435.628 337.851 435.669 338.124 435.751 338.375C435.838 338.626 435.958 338.842 436.113 339.024C436.273 339.207 436.464 339.348 436.688 339.448C436.915 339.549 437.173 339.599 437.46 339.599C437.815 339.599 438.146 339.53 438.451 339.394C438.761 339.252 439.028 339.04 439.251 338.758L440.208 339.797C440.053 340.02 439.841 340.234 439.572 340.439C439.308 340.645 438.989 340.813 438.615 340.945C438.242 341.073 437.815 341.137 437.337 341.137ZM443.462 335.217V341H441.493V333.604H443.346L443.462 335.217ZM445.69 333.556L445.656 335.381C445.561 335.367 445.444 335.356 445.308 335.347C445.175 335.333 445.055 335.326 444.945 335.326C444.667 335.326 444.426 335.363 444.221 335.436C444.02 335.504 443.852 335.606 443.715 335.743C443.583 335.88 443.482 336.046 443.414 336.242C443.35 336.438 443.314 336.661 443.305 336.912L442.908 336.789C442.908 336.311 442.956 335.871 443.052 335.47C443.147 335.064 443.286 334.711 443.469 334.41C443.656 334.109 443.883 333.877 444.152 333.713C444.421 333.549 444.729 333.467 445.075 333.467C445.185 333.467 445.296 333.476 445.41 333.494C445.524 333.508 445.618 333.528 445.69 333.556ZM447.406 339.339L447.399 340.658C447.399 341.164 447.272 341.674 447.017 342.189C446.766 342.704 446.447 343.126 446.06 343.454L445.034 342.928C445.148 342.718 445.26 342.508 445.369 342.299C445.479 342.089 445.57 341.859 445.643 341.608C445.715 341.358 445.752 341.073 445.752 340.754V339.339H447.406ZM454.399 335.183V341H452.431V333.604H454.276L454.399 335.183ZM454.112 337.042H453.579C453.579 336.495 453.65 336.003 453.791 335.565C453.932 335.123 454.131 334.747 454.386 334.438C454.641 334.123 454.944 333.884 455.295 333.72C455.65 333.551 456.047 333.467 456.484 333.467C456.831 333.467 457.147 333.517 457.435 333.617C457.722 333.717 457.968 333.877 458.173 334.096C458.382 334.314 458.542 334.604 458.651 334.964C458.765 335.324 458.822 335.764 458.822 336.283V341H456.84V336.276C456.84 335.948 456.794 335.693 456.703 335.511C456.612 335.328 456.478 335.201 456.3 335.128C456.127 335.05 455.912 335.012 455.657 335.012C455.393 335.012 455.163 335.064 454.967 335.169C454.775 335.274 454.616 335.42 454.488 335.606C454.365 335.789 454.272 336.003 454.208 336.249C454.144 336.495 454.112 336.759 454.112 337.042ZM460.005 337.377V337.233C460.005 336.691 460.082 336.192 460.237 335.736C460.392 335.276 460.618 334.877 460.914 334.54C461.21 334.203 461.575 333.941 462.008 333.754C462.441 333.562 462.938 333.467 463.498 333.467C464.059 333.467 464.558 333.562 464.995 333.754C465.433 333.941 465.799 334.203 466.096 334.54C466.396 334.877 466.624 335.276 466.779 335.736C466.934 336.192 467.012 336.691 467.012 337.233V337.377C467.012 337.915 466.934 338.414 466.779 338.874C466.624 339.33 466.396 339.729 466.096 340.07C465.799 340.408 465.435 340.67 465.002 340.856C464.569 341.043 464.072 341.137 463.512 341.137C462.951 341.137 462.452 341.043 462.015 340.856C461.582 340.67 461.215 340.408 460.914 340.07C460.618 339.729 460.392 339.33 460.237 338.874C460.082 338.414 460.005 337.915 460.005 337.377ZM461.974 337.233V337.377C461.974 337.687 462.001 337.976 462.056 338.245C462.11 338.514 462.197 338.751 462.315 338.956C462.438 339.157 462.598 339.314 462.794 339.428C462.99 339.542 463.229 339.599 463.512 339.599C463.785 339.599 464.02 339.542 464.216 339.428C464.412 339.314 464.569 339.157 464.688 338.956C464.806 338.751 464.893 338.514 464.947 338.245C465.007 337.976 465.036 337.687 465.036 337.377V337.233C465.036 336.933 465.007 336.65 464.947 336.386C464.893 336.117 464.804 335.88 464.681 335.675C464.562 335.465 464.405 335.301 464.209 335.183C464.013 335.064 463.776 335.005 463.498 335.005C463.22 335.005 462.983 335.064 462.787 335.183C462.596 335.301 462.438 335.465 462.315 335.675C462.197 335.88 462.11 336.117 462.056 336.386C462.001 336.65 461.974 336.933 461.974 337.233ZM471.845 333.604V334.998H467.538V333.604H471.845ZM468.604 331.778H470.573V338.771C470.573 338.986 470.601 339.15 470.655 339.264C470.715 339.378 470.801 339.457 470.915 339.503C471.029 339.544 471.173 339.564 471.346 339.564C471.469 339.564 471.578 339.56 471.674 339.551C471.774 339.537 471.858 339.523 471.927 339.51L471.934 340.959C471.765 341.014 471.583 341.057 471.387 341.089C471.191 341.121 470.974 341.137 470.737 341.137C470.304 341.137 469.926 341.066 469.603 340.925C469.284 340.779 469.037 340.547 468.864 340.228C468.691 339.909 468.604 339.489 468.604 338.97V331.778ZM480.444 339.332V336.037C480.444 335.8 480.406 335.597 480.328 335.429C480.251 335.256 480.13 335.121 479.966 335.025C479.806 334.93 479.599 334.882 479.344 334.882C479.125 334.882 478.936 334.921 478.776 334.998C478.617 335.071 478.494 335.178 478.407 335.319C478.321 335.456 478.277 335.618 478.277 335.805H476.309C476.309 335.49 476.382 335.192 476.527 334.909C476.673 334.627 476.885 334.378 477.163 334.164C477.441 333.945 477.771 333.774 478.154 333.651C478.542 333.528 478.975 333.467 479.453 333.467C480.027 333.467 480.538 333.562 480.984 333.754C481.431 333.945 481.782 334.232 482.037 334.615C482.297 334.998 482.427 335.477 482.427 336.051V339.216C482.427 339.621 482.452 339.954 482.502 340.214C482.552 340.469 482.625 340.692 482.721 340.884V341H480.731C480.636 340.799 480.563 340.549 480.513 340.248C480.467 339.943 480.444 339.637 480.444 339.332ZM480.704 336.495L480.718 337.609H479.617C479.357 337.609 479.132 337.639 478.94 337.698C478.749 337.757 478.592 337.842 478.469 337.951C478.346 338.056 478.255 338.179 478.195 338.32C478.141 338.462 478.113 338.617 478.113 338.785C478.113 338.954 478.152 339.106 478.229 339.243C478.307 339.375 478.419 339.48 478.564 339.558C478.71 339.631 478.881 339.667 479.077 339.667C479.373 339.667 479.631 339.608 479.85 339.489C480.068 339.371 480.237 339.225 480.355 339.052C480.479 338.879 480.542 338.715 480.547 338.56L481.066 339.394C480.993 339.58 480.893 339.774 480.766 339.975C480.643 340.175 480.485 340.364 480.294 340.542C480.103 340.715 479.872 340.859 479.604 340.973C479.335 341.082 479.016 341.137 478.646 341.137C478.177 341.137 477.751 341.043 477.368 340.856C476.99 340.665 476.689 340.403 476.466 340.07C476.247 339.733 476.138 339.35 476.138 338.922C476.138 338.535 476.211 338.19 476.356 337.89C476.502 337.589 476.716 337.336 476.999 337.131C477.286 336.921 477.644 336.764 478.072 336.659C478.501 336.55 478.997 336.495 479.562 336.495H480.704ZM487.431 330.5H489.399V339.305L489.201 341H487.431V330.5ZM494.082 337.227V337.37C494.082 337.922 494.023 338.427 493.904 338.888C493.79 339.348 493.613 339.747 493.371 340.084C493.13 340.417 492.829 340.676 492.469 340.863C492.113 341.046 491.694 341.137 491.211 341.137C490.76 341.137 490.368 341.046 490.035 340.863C489.707 340.681 489.431 340.424 489.208 340.091C488.985 339.758 488.805 339.368 488.668 338.922C488.531 338.475 488.429 337.988 488.36 337.459V337.145C488.429 336.616 488.531 336.128 488.668 335.682C488.805 335.235 488.985 334.845 489.208 334.513C489.431 334.18 489.707 333.923 490.035 333.74C490.363 333.558 490.751 333.467 491.197 333.467C491.685 333.467 492.109 333.56 492.469 333.747C492.833 333.929 493.134 334.189 493.371 334.526C493.613 334.859 493.79 335.256 493.904 335.716C494.023 336.172 494.082 336.675 494.082 337.227ZM492.113 337.37V337.227C492.113 336.926 492.09 336.643 492.045 336.379C492.004 336.11 491.931 335.875 491.826 335.675C491.721 335.47 491.578 335.308 491.396 335.189C491.218 335.071 490.988 335.012 490.705 335.012C490.436 335.012 490.208 335.057 490.021 335.148C489.835 335.24 489.68 335.367 489.557 335.531C489.438 335.695 489.349 335.891 489.29 336.119C489.231 336.342 489.194 336.589 489.181 336.857V337.753C489.194 338.113 489.254 338.432 489.358 338.71C489.468 338.983 489.632 339.2 489.851 339.359C490.074 339.514 490.363 339.592 490.719 339.592C490.997 339.592 491.227 339.537 491.409 339.428C491.591 339.318 491.733 339.163 491.833 338.963C491.938 338.762 492.011 338.528 492.052 338.259C492.093 337.985 492.113 337.689 492.113 337.37ZM499.681 339.229V333.604H501.649V341H499.797L499.681 339.229ZM499.899 337.712L500.48 337.698C500.48 338.19 500.424 338.648 500.31 339.072C500.196 339.492 500.025 339.856 499.797 340.166C499.569 340.471 499.282 340.711 498.936 340.884C498.589 341.052 498.181 341.137 497.712 341.137C497.352 341.137 497.019 341.087 496.714 340.986C496.413 340.882 496.153 340.72 495.935 340.501C495.72 340.278 495.552 339.993 495.429 339.646C495.31 339.296 495.251 338.874 495.251 338.382V333.604H497.22V338.396C497.22 338.614 497.245 338.799 497.295 338.949C497.35 339.1 497.425 339.223 497.521 339.318C497.616 339.414 497.728 339.482 497.855 339.523C497.988 339.564 498.133 339.585 498.293 339.585C498.699 339.585 499.018 339.503 499.25 339.339C499.487 339.175 499.653 338.951 499.749 338.669C499.849 338.382 499.899 338.063 499.899 337.712ZM506.776 333.604V334.998H502.47V333.604H506.776ZM503.536 331.778H505.505V338.771C505.505 338.986 505.532 339.15 505.587 339.264C505.646 339.378 505.733 339.457 505.847 339.503C505.961 339.544 506.104 339.564 506.277 339.564C506.4 339.564 506.51 339.56 506.605 339.551C506.706 339.537 506.79 339.523 506.858 339.51L506.865 340.959C506.697 341.014 506.514 341.057 506.318 341.089C506.122 341.121 505.906 341.137 505.669 341.137C505.236 341.137 504.858 341.066 504.534 340.925C504.215 340.779 503.969 340.547 503.796 340.228C503.623 339.909 503.536 339.489 503.536 338.97V331.778ZM511.521 333.604V334.998H507.214V333.604H511.521ZM508.28 331.778H510.249V338.771C510.249 338.986 510.276 339.15 510.331 339.264C510.39 339.378 510.477 339.457 510.591 339.503C510.705 339.544 510.848 339.564 511.021 339.564C511.145 339.564 511.254 339.56 511.35 339.551C511.45 339.537 511.534 339.523 511.603 339.51L511.609 340.959C511.441 341.014 511.258 341.057 511.062 341.089C510.867 341.121 510.65 341.137 510.413 341.137C509.98 341.137 509.602 341.066 509.278 340.925C508.959 340.779 508.713 340.547 508.54 340.228C508.367 339.909 508.28 339.489 508.28 338.97V331.778ZM512.149 337.377V337.233C512.149 336.691 512.227 336.192 512.382 335.736C512.537 335.276 512.762 334.877 513.059 334.54C513.355 334.203 513.719 333.941 514.152 333.754C514.585 333.562 515.082 333.467 515.643 333.467C516.203 333.467 516.702 333.562 517.14 333.754C517.577 333.941 517.944 334.203 518.24 334.54C518.541 334.877 518.769 335.276 518.924 335.736C519.079 336.192 519.156 336.691 519.156 337.233V337.377C519.156 337.915 519.079 338.414 518.924 338.874C518.769 339.33 518.541 339.729 518.24 340.07C517.944 340.408 517.579 340.67 517.146 340.856C516.714 341.043 516.217 341.137 515.656 341.137C515.096 341.137 514.597 341.043 514.159 340.856C513.726 340.67 513.359 340.408 513.059 340.07C512.762 339.729 512.537 339.33 512.382 338.874C512.227 338.414 512.149 337.915 512.149 337.377ZM514.118 337.233V337.377C514.118 337.687 514.146 337.976 514.2 338.245C514.255 338.514 514.341 338.751 514.46 338.956C514.583 339.157 514.743 339.314 514.938 339.428C515.134 339.542 515.374 339.599 515.656 339.599C515.93 339.599 516.164 339.542 516.36 339.428C516.556 339.314 516.714 339.157 516.832 338.956C516.951 338.751 517.037 338.514 517.092 338.245C517.151 337.976 517.181 337.687 517.181 337.377V337.233C517.181 336.933 517.151 336.65 517.092 336.386C517.037 336.117 516.948 335.88 516.825 335.675C516.707 335.465 516.549 335.301 516.354 335.183C516.158 335.064 515.921 335.005 515.643 335.005C515.365 335.005 515.128 335.064 514.932 335.183C514.74 335.301 514.583 335.465 514.46 335.675C514.341 335.88 514.255 336.117 514.2 336.386C514.146 336.65 514.118 336.933 514.118 337.233ZM522.294 335.183V341H520.325V333.604H522.171L522.294 335.183ZM522.007 337.042H521.474C521.474 336.495 521.544 336.003 521.686 335.565C521.827 335.123 522.025 334.747 522.28 334.438C522.535 334.123 522.839 333.884 523.189 333.72C523.545 333.551 523.941 333.467 524.379 333.467C524.725 333.467 525.042 333.517 525.329 333.617C525.616 333.717 525.862 333.877 526.067 334.096C526.277 334.314 526.437 334.604 526.546 334.964C526.66 335.324 526.717 335.764 526.717 336.283V341H524.734V336.276C524.734 335.948 524.689 335.693 524.598 335.511C524.507 335.328 524.372 335.201 524.194 335.128C524.021 335.05 523.807 335.012 523.552 335.012C523.287 335.012 523.057 335.064 522.861 335.169C522.67 335.274 522.51 335.42 522.383 335.606C522.26 335.789 522.166 336.003 522.103 336.249C522.039 336.495 522.007 336.759 522.007 337.042ZM528.31 340.05C528.31 339.758 528.41 339.514 528.61 339.318C528.815 339.122 529.087 339.024 529.424 339.024C529.761 339.024 530.03 339.122 530.23 339.318C530.436 339.514 530.538 339.758 530.538 340.05C530.538 340.341 530.436 340.585 530.23 340.781C530.03 340.977 529.761 341.075 529.424 341.075C529.087 341.075 528.815 340.977 528.61 340.781C528.41 340.585 528.31 340.341 528.31 340.05Z" fill="white"/>
<defs>
<linearGradient id="paint0_linear_1677_24620" x1="424" y1="0" x2="424" y2="443.22" gradientUnits="userSpaceOnUse">
<stop stop-color="#009153"/>
<stop offset="1" stop-color="#00CC75"/>
</linearGradient>
<linearGradient id="paint1_linear_1677_24620" x1="424" y1="0" x2="424" y2="443.22" gradientUnits="userSpaceOnUse">
<stop stop-color="#009153"/>
<stop offset="1" stop-color="#00CC75"/>
</linearGradient>
</defs>
</svg>
