<svg width="848" height="444" viewBox="0 0 848 444" fill="none" xmlns="http://www.w3.org/2000/svg">
<mask id="mask0_1677_24620" style="mask-type:alpha" maskUnits="userSpaceOnUse" x="0" y="0" width="848" height="444">
<path d="M838 0H10C4.47715 0 0 4.47716 0 10V433.22C0 438.743 4.47718 443.22 10 443.22H838C843.523 443.22 848 438.743 848 433.22V10C848 4.47715 843.523 0 838 0Z" fill="url(#paint0_linear_1677_24620)"/>
</mask>
<g mask="url(#mask0_1677_24620)">
<rect width="848" height="443.22" rx="10" fill="url(#paint1_linear_1677_24620)"/>
<path d="M285.592 172V158.18H293.892V159.6H287.192V164.92H292.852V166.34H287.192V172H285.592ZM295.879 172V162H297.419V172H295.879ZM295.879 159.8V158H297.419V159.8H295.879ZM300.294 172V162H301.834V162.7C302.06 162.567 302.34 162.433 302.674 162.3C303.02 162.167 303.387 162.053 303.774 161.96C304.16 161.853 304.534 161.8 304.894 161.8C305.814 161.8 306.514 161.967 306.994 162.3C307.487 162.62 307.827 163.14 308.014 163.86C308.2 164.58 308.294 165.527 308.294 166.7V172H306.734V166.76C306.734 165.893 306.68 165.2 306.574 164.68C306.48 164.16 306.28 163.787 305.974 163.56C305.68 163.32 305.227 163.2 304.614 163.2C304.28 163.2 303.934 163.24 303.574 163.32C303.227 163.387 302.9 163.48 302.594 163.6C302.287 163.707 302.034 163.813 301.834 163.92V172H300.294ZM313.235 172.2C312.315 172.2 311.615 171.94 311.135 171.42C310.655 170.9 310.415 170.14 310.415 169.14C310.415 168.487 310.529 167.953 310.755 167.54C310.982 167.127 311.322 166.813 311.775 166.6C312.242 166.373 312.815 166.233 313.495 166.18L316.575 165.88V165.02C316.575 164.34 316.422 163.86 316.115 163.58C315.822 163.3 315.382 163.16 314.795 163.16C314.462 163.16 314.062 163.173 313.595 163.2C313.142 163.227 312.689 163.26 312.235 163.3C311.782 163.34 311.382 163.38 311.035 163.42L310.955 162.24C311.275 162.173 311.662 162.107 312.115 162.04C312.569 161.973 313.042 161.92 313.535 161.88C314.029 161.827 314.482 161.8 314.895 161.8C315.655 161.8 316.275 161.92 316.755 162.16C317.235 162.387 317.582 162.74 317.795 163.22C318.022 163.687 318.135 164.287 318.135 165.02V170.08C318.162 170.373 318.275 170.587 318.475 170.72C318.689 170.853 318.955 170.94 319.275 170.98L319.215 172.2C318.922 172.2 318.655 172.18 318.415 172.14C318.175 172.113 317.949 172.067 317.735 172C317.562 171.933 317.395 171.853 317.235 171.76C317.089 171.667 316.942 171.553 316.795 171.42C316.542 171.527 316.215 171.64 315.815 171.76C315.429 171.88 315.009 171.98 314.555 172.06C314.115 172.153 313.675 172.2 313.235 172.2ZM313.495 170.9C313.855 170.9 314.229 170.867 314.615 170.8C315.002 170.733 315.369 170.653 315.715 170.56C316.062 170.467 316.349 170.38 316.575 170.3V167.04L313.675 167.32C313.075 167.373 312.642 167.547 312.375 167.84C312.122 168.133 311.995 168.553 311.995 169.1C311.995 169.66 312.122 170.1 312.375 170.42C312.629 170.74 313.002 170.9 313.495 170.9ZM321.094 172V162H322.634V162.7C322.861 162.567 323.141 162.433 323.474 162.3C323.821 162.167 324.188 162.053 324.574 161.96C324.961 161.853 325.334 161.8 325.694 161.8C326.614 161.8 327.314 161.967 327.794 162.3C328.288 162.62 328.628 163.14 328.814 163.86C329.001 164.58 329.094 165.527 329.094 166.7V172H327.534V166.76C327.534 165.893 327.481 165.2 327.374 164.68C327.281 164.16 327.081 163.787 326.774 163.56C326.481 163.32 326.028 163.2 325.414 163.2C325.081 163.2 324.734 163.24 324.374 163.32C324.028 163.387 323.701 163.48 323.394 163.6C323.088 163.707 322.834 163.813 322.634 163.92V172H321.094ZM335.556 172.2C334.503 172.2 333.676 172.027 333.076 171.68C332.476 171.32 332.049 170.747 331.796 169.96C331.556 169.173 331.436 168.133 331.436 166.84C331.436 165.627 331.569 164.653 331.836 163.92C332.116 163.173 332.563 162.633 333.176 162.3C333.789 161.967 334.589 161.8 335.576 161.8C335.803 161.8 336.076 161.82 336.396 161.86C336.729 161.887 337.069 161.927 337.416 161.98C337.763 162.02 338.063 162.06 338.316 162.1L338.256 163.38C338.029 163.353 337.769 163.327 337.476 163.3C337.183 163.273 336.896 163.253 336.616 163.24C336.336 163.213 336.103 163.2 335.916 163.2C335.156 163.2 334.563 163.32 334.136 163.56C333.723 163.8 333.429 164.187 333.256 164.72C333.096 165.24 333.016 165.947 333.016 166.84C333.016 167.813 333.089 168.593 333.236 169.18C333.383 169.753 333.663 170.167 334.076 170.42C334.489 170.673 335.103 170.8 335.916 170.8C336.103 170.8 336.336 170.793 336.616 170.78C336.909 170.753 337.203 170.727 337.496 170.7C337.803 170.673 338.069 170.653 338.296 170.64L338.336 171.92C338.069 171.96 337.763 172 337.416 172.04C337.069 172.08 336.729 172.113 336.396 172.14C336.063 172.18 335.783 172.2 335.556 172.2ZM344.107 172.2C343.107 172.2 342.314 172.007 341.727 171.62C341.154 171.233 340.74 170.66 340.487 169.9C340.234 169.14 340.107 168.193 340.107 167.06C340.107 165.793 340.28 164.78 340.627 164.02C340.974 163.247 341.46 162.687 342.087 162.34C342.714 161.98 343.454 161.8 344.307 161.8C345.64 161.8 346.647 162.173 347.327 162.92C348.007 163.653 348.347 164.84 348.347 166.48L348.267 167.66H341.687C341.7 168.7 341.894 169.487 342.267 170.02C342.64 170.553 343.314 170.82 344.287 170.82C344.66 170.82 345.067 170.813 345.507 170.8C345.96 170.773 346.407 170.747 346.847 170.72C347.287 170.693 347.66 170.667 347.967 170.64L348.007 171.86C347.687 171.913 347.294 171.967 346.827 172.02C346.374 172.073 345.907 172.113 345.427 172.14C344.947 172.18 344.507 172.2 344.107 172.2ZM341.687 166.4H346.787C346.787 165.173 346.587 164.32 346.187 163.84C345.8 163.347 345.174 163.1 344.307 163.1C343.467 163.1 342.82 163.353 342.367 163.86C341.914 164.367 341.687 165.213 341.687 166.4ZM355.299 172V158.18H363.759V159.6H356.899V164.28H362.559V165.68H356.899V170.58H363.759V172H355.299ZM367.954 172L365.154 162H366.834L369.114 170.66H369.874L372.234 162H373.834L371.034 172H367.954ZM379.602 172.2C378.482 172.2 377.609 172.007 376.982 171.62C376.369 171.233 375.936 170.647 375.682 169.86C375.442 169.073 375.322 168.08 375.322 166.88C375.322 165.733 375.456 164.787 375.722 164.04C376.002 163.293 376.456 162.733 377.082 162.36C377.709 161.987 378.549 161.8 379.602 161.8C380.669 161.8 381.516 161.987 382.142 162.36C382.769 162.733 383.216 163.293 383.482 164.04C383.762 164.787 383.902 165.733 383.902 166.88C383.902 168.08 383.776 169.073 383.522 169.86C383.282 170.647 382.849 171.233 382.222 171.62C381.609 172.007 380.736 172.2 379.602 172.2ZM379.602 170.86C380.376 170.86 380.956 170.727 381.342 170.46C381.729 170.18 381.982 169.747 382.102 169.16C382.236 168.573 382.302 167.813 382.302 166.88C382.302 165.96 382.222 165.227 382.062 164.68C381.902 164.133 381.629 163.74 381.242 163.5C380.856 163.26 380.309 163.14 379.602 163.14C378.909 163.14 378.362 163.26 377.962 163.5C377.576 163.74 377.302 164.133 377.142 164.68C376.982 165.227 376.902 165.96 376.902 166.88C376.902 167.813 376.962 168.573 377.082 169.16C377.216 169.747 377.476 170.18 377.862 170.46C378.249 170.727 378.829 170.86 379.602 170.86ZM386.468 172V157.66H388.008V172H386.468ZM394.056 172.2C393.203 172.2 392.55 172.027 392.096 171.68C391.643 171.333 391.33 170.793 391.156 170.06C390.996 169.327 390.916 168.38 390.916 167.22V162H392.456V167.22C392.456 168.1 392.496 168.8 392.576 169.32C392.67 169.84 392.863 170.22 393.156 170.46C393.45 170.687 393.89 170.8 394.476 170.8C395.063 170.8 395.596 170.72 396.076 170.56C396.556 170.4 396.943 170.24 397.236 170.08V162H398.776V172H397.236V171.3C396.81 171.54 396.343 171.753 395.836 171.94C395.343 172.113 394.75 172.2 394.056 172.2ZM404.941 172.22C404.247 172.22 403.694 172.113 403.281 171.9C402.881 171.687 402.594 171.32 402.421 170.8C402.247 170.267 402.161 169.52 402.161 168.56V163.34H400.741V162H402.161V158.94H403.701V162H406.841V163.34H403.701V168.1C403.701 168.807 403.727 169.36 403.781 169.76C403.847 170.147 403.981 170.42 404.181 170.58C404.381 170.74 404.694 170.82 405.121 170.82C405.254 170.82 405.427 170.813 405.641 170.8C405.854 170.787 406.067 170.773 406.281 170.76C406.507 170.733 406.707 170.713 406.881 170.7L406.981 172C406.687 172.04 406.341 172.087 405.941 172.14C405.541 172.193 405.207 172.22 404.941 172.22ZM408.672 172V162H410.212V172H408.672ZM408.672 159.8V158H410.212V159.8H408.672ZM416.926 172.2C415.806 172.2 414.933 172.007 414.306 171.62C413.693 171.233 413.26 170.647 413.006 169.86C412.766 169.073 412.646 168.08 412.646 166.88C412.646 165.733 412.78 164.787 413.046 164.04C413.326 163.293 413.78 162.733 414.406 162.36C415.033 161.987 415.873 161.8 416.926 161.8C417.993 161.8 418.84 161.987 419.466 162.36C420.093 162.733 420.54 163.293 420.806 164.04C421.086 164.787 421.226 165.733 421.226 166.88C421.226 168.08 421.1 169.073 420.846 169.86C420.606 170.647 420.173 171.233 419.546 171.62C418.933 172.007 418.06 172.2 416.926 172.2ZM416.926 170.86C417.7 170.86 418.28 170.727 418.666 170.46C419.053 170.18 419.306 169.747 419.426 169.16C419.56 168.573 419.626 167.813 419.626 166.88C419.626 165.96 419.546 165.227 419.386 164.68C419.226 164.133 418.953 163.74 418.566 163.5C418.18 163.26 417.633 163.14 416.926 163.14C416.233 163.14 415.686 163.26 415.286 163.5C414.9 163.74 414.626 164.133 414.466 164.68C414.306 165.227 414.226 165.96 414.226 166.88C414.226 167.813 414.286 168.573 414.406 169.16C414.54 169.747 414.8 170.18 415.186 170.46C415.573 170.727 416.153 170.86 416.926 170.86ZM423.672 172V162H425.212V162.7C425.439 162.567 425.719 162.433 426.052 162.3C426.399 162.167 426.766 162.053 427.152 161.96C427.539 161.853 427.912 161.8 428.272 161.8C429.192 161.8 429.892 161.967 430.372 162.3C430.866 162.62 431.206 163.14 431.392 163.86C431.579 164.58 431.672 165.527 431.672 166.7V172H430.112V166.76C430.112 165.893 430.059 165.2 429.952 164.68C429.859 164.16 429.659 163.787 429.352 163.56C429.059 163.32 428.606 163.2 427.992 163.2C427.659 163.2 427.312 163.24 426.952 163.32C426.606 163.387 426.279 163.48 425.972 163.6C425.666 163.707 425.412 163.813 425.212 163.92V172H423.672ZM443.629 172.2C442.589 172.2 441.735 172.047 441.069 171.74C440.415 171.433 439.902 170.98 439.529 170.38C439.155 169.78 438.895 169.04 438.749 168.16C438.615 167.28 438.549 166.267 438.549 165.12C438.549 163.947 438.615 162.913 438.749 162.02C438.895 161.127 439.155 160.38 439.529 159.78C439.902 159.18 440.415 158.727 441.069 158.42C441.735 158.113 442.589 157.96 443.629 157.96C444.109 157.96 444.582 157.987 445.049 158.04C445.529 158.08 445.975 158.14 446.389 158.22C446.802 158.287 447.155 158.353 447.449 158.42L447.389 159.76C447.095 159.707 446.735 159.653 446.309 159.6C445.882 159.547 445.449 159.5 445.009 159.46C444.569 159.42 444.169 159.4 443.809 159.4C443.049 159.4 442.429 159.513 441.949 159.74C441.482 159.967 441.122 160.32 440.869 160.8C440.615 161.267 440.442 161.86 440.349 162.58C440.255 163.287 440.209 164.133 440.209 165.12C440.209 166.08 440.255 166.92 440.349 167.64C440.442 168.347 440.609 168.933 440.849 169.4C441.102 169.853 441.469 170.193 441.949 170.42C442.429 170.647 443.055 170.76 443.829 170.76C444.389 170.76 445.002 170.727 445.669 170.66C446.349 170.58 446.922 170.5 447.389 170.42L447.449 171.78C447.129 171.847 446.755 171.913 446.329 171.98C445.902 172.047 445.455 172.1 444.989 172.14C444.522 172.18 444.069 172.2 443.629 172.2ZM453.548 172.2C452.428 172.2 451.554 172.007 450.928 171.62C450.314 171.233 449.881 170.647 449.628 169.86C449.388 169.073 449.268 168.08 449.268 166.88C449.268 165.733 449.401 164.787 449.668 164.04C449.948 163.293 450.401 162.733 451.028 162.36C451.654 161.987 452.494 161.8 453.548 161.8C454.614 161.8 455.461 161.987 456.088 162.36C456.714 162.733 457.161 163.293 457.428 164.04C457.708 164.787 457.848 165.733 457.848 166.88C457.848 168.08 457.721 169.073 457.468 169.86C457.228 170.647 456.794 171.233 456.168 171.62C455.554 172.007 454.681 172.2 453.548 172.2ZM453.548 170.86C454.321 170.86 454.901 170.727 455.288 170.46C455.674 170.18 455.928 169.747 456.048 169.16C456.181 168.573 456.248 167.813 456.248 166.88C456.248 165.96 456.168 165.227 456.008 164.68C455.848 164.133 455.574 163.74 455.188 163.5C454.801 163.26 454.254 163.14 453.548 163.14C452.854 163.14 452.308 163.26 451.908 163.5C451.521 163.74 451.248 164.133 451.088 164.68C450.928 165.227 450.848 165.96 450.848 166.88C450.848 167.813 450.908 168.573 451.028 169.16C451.161 169.747 451.421 170.18 451.808 170.46C452.194 170.727 452.774 170.86 453.548 170.86ZM460.294 172V162H461.834V162.7C462.06 162.567 462.34 162.433 462.674 162.3C463.02 162.167 463.387 162.053 463.774 161.96C464.16 161.853 464.534 161.8 464.894 161.8C465.814 161.8 466.514 161.967 466.994 162.3C467.487 162.62 467.827 163.14 468.014 163.86C468.2 164.58 468.294 165.527 468.294 166.7V172H466.734V166.76C466.734 165.893 466.68 165.2 466.574 164.68C466.48 164.16 466.28 163.787 465.974 163.56C465.68 163.32 465.227 163.2 464.614 163.2C464.28 163.2 463.934 163.24 463.574 163.32C463.227 163.387 462.9 163.48 462.594 163.6C462.287 163.707 462.034 163.813 461.834 163.92V172H460.294ZM471.475 172V163.34H470.215V162H471.475V161.12C471.475 160.16 471.562 159.413 471.735 158.88C471.909 158.347 472.195 157.98 472.595 157.78C472.995 157.567 473.522 157.46 474.175 157.46C474.335 157.46 474.555 157.467 474.835 157.48C475.115 157.493 475.389 157.513 475.655 157.54C475.922 157.553 476.109 157.573 476.215 157.6L476.195 158.9C475.955 158.887 475.662 158.88 475.315 158.88C474.982 158.867 474.709 158.86 474.495 158.86C474.122 158.86 473.829 158.927 473.615 159.06C473.402 159.18 473.249 159.407 473.155 159.74C473.075 160.073 473.035 160.54 473.035 161.14V162H475.915V163.34H473.035V172H471.475ZM481.236 172.2C480.236 172.2 479.443 172.007 478.856 171.62C478.283 171.233 477.869 170.66 477.616 169.9C477.363 169.14 477.236 168.193 477.236 167.06C477.236 165.793 477.409 164.78 477.756 164.02C478.103 163.247 478.589 162.687 479.216 162.34C479.843 161.98 480.583 161.8 481.436 161.8C482.769 161.8 483.776 162.173 484.456 162.92C485.136 163.653 485.476 164.84 485.476 166.48L485.396 167.66H478.816C478.829 168.7 479.023 169.487 479.396 170.02C479.769 170.553 480.443 170.82 481.416 170.82C481.789 170.82 482.196 170.813 482.636 170.8C483.089 170.773 483.536 170.747 483.976 170.72C484.416 170.693 484.789 170.667 485.096 170.64L485.136 171.86C484.816 171.913 484.423 171.967 483.956 172.02C483.503 172.073 483.036 172.113 482.556 172.14C482.076 172.18 481.636 172.2 481.236 172.2ZM478.816 166.4H483.916C483.916 165.173 483.716 164.32 483.316 163.84C482.929 163.347 482.303 163.1 481.436 163.1C480.596 163.1 479.949 163.353 479.496 163.86C479.043 164.367 478.816 165.213 478.816 166.4ZM487.794 172V162H489.334V163.34C489.587 163.167 489.907 162.98 490.294 162.78C490.68 162.567 491.107 162.367 491.574 162.18C492.04 161.993 492.507 161.86 492.974 161.78V163.36C492.52 163.453 492.06 163.58 491.594 163.74C491.127 163.887 490.694 164.047 490.294 164.22C489.907 164.393 489.587 164.547 489.334 164.68V172H487.794ZM498.267 172.2C497.267 172.2 496.474 172.007 495.887 171.62C495.314 171.233 494.9 170.66 494.647 169.9C494.394 169.14 494.267 168.193 494.267 167.06C494.267 165.793 494.44 164.78 494.787 164.02C495.134 163.247 495.62 162.687 496.247 162.34C496.874 161.98 497.614 161.8 498.467 161.8C499.8 161.8 500.807 162.173 501.487 162.92C502.167 163.653 502.507 164.84 502.507 166.48L502.427 167.66H495.847C495.86 168.7 496.054 169.487 496.427 170.02C496.8 170.553 497.474 170.82 498.447 170.82C498.82 170.82 499.227 170.813 499.667 170.8C500.12 170.773 500.567 170.747 501.007 170.72C501.447 170.693 501.82 170.667 502.127 170.64L502.167 171.86C501.847 171.913 501.454 171.967 500.987 172.02C500.534 172.073 500.067 172.113 499.587 172.14C499.107 172.18 498.667 172.2 498.267 172.2ZM495.847 166.4H500.947C500.947 165.173 500.747 164.32 500.347 163.84C499.96 163.347 499.334 163.1 498.467 163.1C497.627 163.1 496.98 163.353 496.527 163.86C496.074 164.367 495.847 165.213 495.847 166.4ZM504.825 172V162H506.365V162.7C506.591 162.567 506.871 162.433 507.205 162.3C507.551 162.167 507.918 162.053 508.305 161.96C508.691 161.853 509.065 161.8 509.425 161.8C510.345 161.8 511.045 161.967 511.525 162.3C512.018 162.62 512.358 163.14 512.545 163.86C512.731 164.58 512.825 165.527 512.825 166.7V172H511.265V166.76C511.265 165.893 511.211 165.2 511.105 164.68C511.011 164.16 510.811 163.787 510.505 163.56C510.211 163.32 509.758 163.2 509.145 163.2C508.811 163.2 508.465 163.24 508.105 163.32C507.758 163.387 507.431 163.48 507.125 163.6C506.818 163.707 506.565 163.813 506.365 163.92V172H504.825ZM519.286 172.2C518.233 172.2 517.406 172.027 516.806 171.68C516.206 171.32 515.78 170.747 515.526 169.96C515.286 169.173 515.166 168.133 515.166 166.84C515.166 165.627 515.3 164.653 515.566 163.92C515.846 163.173 516.293 162.633 516.906 162.3C517.52 161.967 518.32 161.8 519.306 161.8C519.533 161.8 519.806 161.82 520.126 161.86C520.46 161.887 520.8 161.927 521.146 161.98C521.493 162.02 521.793 162.06 522.046 162.1L521.986 163.38C521.76 163.353 521.5 163.327 521.206 163.3C520.913 163.273 520.626 163.253 520.346 163.24C520.066 163.213 519.833 163.2 519.646 163.2C518.886 163.2 518.293 163.32 517.866 163.56C517.453 163.8 517.16 164.187 516.986 164.72C516.826 165.24 516.746 165.947 516.746 166.84C516.746 167.813 516.82 168.593 516.966 169.18C517.113 169.753 517.393 170.167 517.806 170.42C518.22 170.673 518.833 170.8 519.646 170.8C519.833 170.8 520.066 170.793 520.346 170.78C520.64 170.753 520.933 170.727 521.226 170.7C521.533 170.673 521.8 170.653 522.026 170.64L522.066 171.92C521.8 171.96 521.493 172 521.146 172.04C520.8 172.08 520.46 172.113 520.126 172.14C519.793 172.18 519.513 172.2 519.286 172.2ZM527.837 172.2C526.837 172.2 526.044 172.007 525.457 171.62C524.884 171.233 524.471 170.66 524.217 169.9C523.964 169.14 523.837 168.193 523.837 167.06C523.837 165.793 524.011 164.78 524.357 164.02C524.704 163.247 525.191 162.687 525.817 162.34C526.444 161.98 527.184 161.8 528.037 161.8C529.371 161.8 530.377 162.173 531.057 162.92C531.737 163.653 532.077 164.84 532.077 166.48L531.997 167.66H525.417C525.431 168.7 525.624 169.487 525.997 170.02C526.371 170.553 527.044 170.82 528.017 170.82C528.391 170.82 528.797 170.813 529.237 170.8C529.691 170.773 530.137 170.747 530.577 170.72C531.017 170.693 531.391 170.667 531.697 170.64L531.737 171.86C531.417 171.913 531.024 171.967 530.557 172.02C530.104 172.073 529.637 172.113 529.157 172.14C528.677 172.18 528.237 172.2 527.837 172.2ZM525.417 166.4H530.517C530.517 165.173 530.317 164.32 529.917 163.84C529.531 163.347 528.904 163.1 528.037 163.1C527.197 163.1 526.551 163.353 526.097 163.86C525.644 164.367 525.417 165.213 525.417 166.4ZM543.55 172V160.58L540.19 162.82L539.45 161.6L543.65 158.8H545.15V172H543.55ZM549.881 172V169.66H551.581V172H549.881ZM558.496 172.2C557.736 172.2 557.056 172.093 556.456 171.88C555.87 171.667 555.363 171.313 554.936 170.82C554.523 170.313 554.203 169.633 553.976 168.78C553.763 167.927 553.656 166.867 553.656 165.6C553.656 164.253 553.763 163.127 553.976 162.22C554.19 161.313 554.503 160.593 554.916 160.06C555.343 159.527 555.85 159.147 556.436 158.92C557.036 158.693 557.716 158.58 558.476 158.58C559.263 158.58 559.956 158.693 560.556 158.92C561.156 159.147 561.656 159.527 562.056 160.06C562.47 160.593 562.783 161.313 562.996 162.22C563.21 163.113 563.316 164.24 563.316 165.6C563.316 167.28 563.123 168.6 562.736 169.56C562.35 170.52 561.796 171.2 561.076 171.6C560.37 172 559.51 172.2 558.496 172.2ZM558.496 170.78C559.016 170.78 559.47 170.7 559.856 170.54C560.256 170.38 560.59 170.107 560.856 169.72C561.123 169.333 561.323 168.807 561.456 168.14C561.59 167.46 561.656 166.613 561.656 165.6C561.656 164.493 561.59 163.58 561.456 162.86C561.336 162.14 561.143 161.573 560.876 161.16C560.623 160.733 560.296 160.433 559.896 160.26C559.51 160.087 559.043 160 558.496 160C557.963 160 557.496 160.087 557.096 160.26C556.696 160.433 556.363 160.727 556.096 161.14C555.843 161.553 555.65 162.127 555.516 162.86C555.383 163.58 555.316 164.5 555.316 165.62C555.316 166.633 555.383 167.48 555.516 168.16C555.663 168.827 555.87 169.353 556.136 169.74C556.416 170.113 556.75 170.38 557.136 170.54C557.536 170.7 557.99 170.78 558.496 170.78Z" fill="#F0FFF8"/>
<rect x="358" y="284" width="131" height="30" rx="5" fill="#FFC01E"/>
<path d="M377.296 295.749L374.589 304H372.408L376.106 294.047H377.494L377.296 295.749ZM379.545 304L376.831 295.749L376.612 294.047H378.014L381.732 304H379.545ZM379.422 300.295V301.901H374.165V300.295H379.422ZM386.825 302.229V296.604H388.794V304H386.941L386.825 302.229ZM387.044 300.712L387.625 300.698C387.625 301.19 387.568 301.648 387.454 302.072C387.34 302.492 387.169 302.856 386.941 303.166C386.714 303.471 386.426 303.711 386.08 303.884C385.734 304.052 385.326 304.137 384.856 304.137C384.496 304.137 384.164 304.087 383.858 303.986C383.558 303.882 383.298 303.72 383.079 303.501C382.865 303.278 382.696 302.993 382.573 302.646C382.455 302.296 382.396 301.874 382.396 301.382V296.604H384.364V301.396C384.364 301.614 384.389 301.799 384.439 301.949C384.494 302.1 384.569 302.223 384.665 302.318C384.761 302.414 384.872 302.482 385 302.523C385.132 302.564 385.278 302.585 385.438 302.585C385.843 302.585 386.162 302.503 386.395 302.339C386.632 302.175 386.798 301.951 386.894 301.669C386.994 301.382 387.044 301.063 387.044 300.712ZM394.666 302.387V293.5H396.648V304H394.864L394.666 302.387ZM389.99 300.391V300.247C389.99 299.682 390.054 299.169 390.182 298.709C390.309 298.244 390.496 297.845 390.742 297.513C390.988 297.18 391.291 296.923 391.651 296.74C392.011 296.558 392.422 296.467 392.882 296.467C393.315 296.467 393.693 296.558 394.017 296.74C394.345 296.923 394.623 297.182 394.851 297.52C395.083 297.852 395.27 298.246 395.411 298.702C395.552 299.153 395.655 299.648 395.719 300.186V300.5C395.655 301.015 395.552 301.493 395.411 301.936C395.27 302.378 395.083 302.765 394.851 303.098C394.623 303.426 394.345 303.681 394.017 303.863C393.688 304.046 393.306 304.137 392.868 304.137C392.408 304.137 391.998 304.043 391.638 303.856C391.282 303.67 390.981 303.408 390.735 303.07C390.494 302.733 390.309 302.337 390.182 301.881C390.054 301.425 389.99 300.928 389.99 300.391ZM391.959 300.247V300.391C391.959 300.696 391.982 300.981 392.027 301.245C392.077 301.509 392.157 301.744 392.267 301.949C392.381 302.15 392.526 302.307 392.704 302.421C392.886 302.53 393.107 302.585 393.367 302.585C393.704 302.585 393.982 302.51 394.201 302.359C394.42 302.204 394.586 301.993 394.7 301.724C394.819 301.455 394.887 301.145 394.905 300.794V299.898C394.892 299.611 394.851 299.354 394.782 299.126C394.718 298.894 394.623 298.695 394.495 298.531C394.372 298.367 394.217 298.24 394.03 298.148C393.848 298.057 393.632 298.012 393.381 298.012C393.126 298.012 392.907 298.071 392.725 298.189C392.542 298.303 392.394 298.461 392.28 298.661C392.171 298.862 392.089 299.099 392.034 299.372C391.984 299.641 391.959 299.933 391.959 300.247ZM400.265 296.604V304H398.289V296.604H400.265ZM398.166 294.676C398.166 294.389 398.266 294.152 398.467 293.965C398.667 293.778 398.936 293.685 399.273 293.685C399.606 293.685 399.873 293.778 400.073 293.965C400.278 294.152 400.381 294.389 400.381 294.676C400.381 294.963 400.278 295.2 400.073 295.387C399.873 295.574 399.606 295.667 399.273 295.667C398.936 295.667 398.667 295.574 398.467 295.387C398.266 295.2 398.166 294.963 398.166 294.676ZM401.577 300.377V300.233C401.577 299.691 401.655 299.192 401.81 298.736C401.965 298.276 402.19 297.877 402.486 297.54C402.783 297.203 403.147 296.941 403.58 296.754C404.013 296.562 404.51 296.467 405.07 296.467C405.631 296.467 406.13 296.562 406.567 296.754C407.005 296.941 407.372 297.203 407.668 297.54C407.969 297.877 408.197 298.276 408.352 298.736C408.507 299.192 408.584 299.691 408.584 300.233V300.377C408.584 300.915 408.507 301.414 408.352 301.874C408.197 302.33 407.969 302.729 407.668 303.07C407.372 303.408 407.007 303.67 406.574 303.856C406.141 304.043 405.645 304.137 405.084 304.137C404.523 304.137 404.024 304.043 403.587 303.856C403.154 303.67 402.787 303.408 402.486 303.07C402.19 302.729 401.965 302.33 401.81 301.874C401.655 301.414 401.577 300.915 401.577 300.377ZM403.546 300.233V300.377C403.546 300.687 403.573 300.976 403.628 301.245C403.683 301.514 403.769 301.751 403.888 301.956C404.011 302.157 404.17 302.314 404.366 302.428C404.562 302.542 404.801 302.599 405.084 302.599C405.357 302.599 405.592 302.542 405.788 302.428C405.984 302.314 406.141 302.157 406.26 301.956C406.378 301.751 406.465 301.514 406.52 301.245C406.579 300.976 406.608 300.687 406.608 300.377V300.233C406.608 299.933 406.579 299.65 406.52 299.386C406.465 299.117 406.376 298.88 406.253 298.675C406.134 298.465 405.977 298.301 405.781 298.183C405.585 298.064 405.348 298.005 405.07 298.005C404.792 298.005 404.555 298.064 404.359 298.183C404.168 298.301 404.011 298.465 403.888 298.675C403.769 298.88 403.683 299.117 403.628 299.386C403.573 299.65 403.546 299.933 403.546 300.233ZM416.459 304H414.292L414.306 302.4H416.459C416.997 302.4 417.45 302.28 417.819 302.038C418.188 301.792 418.466 301.434 418.653 300.965C418.845 300.495 418.94 299.928 418.94 299.263V298.777C418.94 298.267 418.886 297.818 418.776 297.431C418.672 297.043 418.514 296.717 418.305 296.453C418.095 296.189 417.838 295.991 417.532 295.858C417.227 295.722 416.876 295.653 416.479 295.653H414.251V294.047H416.479C417.145 294.047 417.753 294.161 418.305 294.389C418.861 294.612 419.341 294.933 419.747 295.353C420.153 295.772 420.465 296.273 420.684 296.856C420.907 297.435 421.019 298.08 421.019 298.791V299.263C421.019 299.969 420.907 300.614 420.684 301.197C420.465 301.781 420.153 302.282 419.747 302.701C419.346 303.116 418.865 303.437 418.305 303.665C417.749 303.888 417.133 304 416.459 304ZM415.454 294.047V304H413.403V294.047H415.454ZM422.071 300.377V300.233C422.071 299.691 422.149 299.192 422.304 298.736C422.459 298.276 422.684 297.877 422.98 297.54C423.277 297.203 423.641 296.941 424.074 296.754C424.507 296.562 425.004 296.467 425.564 296.467C426.125 296.467 426.624 296.562 427.062 296.754C427.499 296.941 427.866 297.203 428.162 297.54C428.463 297.877 428.691 298.276 428.846 298.736C429.001 299.192 429.078 299.691 429.078 300.233V300.377C429.078 300.915 429.001 301.414 428.846 301.874C428.691 302.33 428.463 302.729 428.162 303.07C427.866 303.408 427.501 303.67 427.068 303.856C426.635 304.043 426.139 304.137 425.578 304.137C425.018 304.137 424.519 304.043 424.081 303.856C423.648 303.67 423.281 303.408 422.98 303.07C422.684 302.729 422.459 302.33 422.304 301.874C422.149 301.414 422.071 300.915 422.071 300.377ZM424.04 300.233V300.377C424.04 300.687 424.067 300.976 424.122 301.245C424.177 301.514 424.263 301.751 424.382 301.956C424.505 302.157 424.664 302.314 424.86 302.428C425.056 302.542 425.296 302.599 425.578 302.599C425.852 302.599 426.086 302.542 426.282 302.428C426.478 302.314 426.635 302.157 426.754 301.956C426.872 301.751 426.959 301.514 427.014 301.245C427.073 300.976 427.103 300.687 427.103 300.377V300.233C427.103 299.933 427.073 299.65 427.014 299.386C426.959 299.117 426.87 298.88 426.747 298.675C426.629 298.465 426.471 298.301 426.275 298.183C426.079 298.064 425.842 298.005 425.564 298.005C425.286 298.005 425.049 298.064 424.854 298.183C424.662 298.301 424.505 298.465 424.382 298.675C424.263 298.88 424.177 299.117 424.122 299.386C424.067 299.65 424.04 299.933 424.04 300.233ZM432.4 302.086L433.938 296.604H435.189L434.786 298.757L433.248 304H432.202L432.4 302.086ZM431.621 296.604L432.722 302.079L432.824 304H431.594L429.721 296.604H431.621ZM436.598 301.99L437.671 296.604H439.578L437.705 304H436.481L436.598 301.99ZM435.36 296.604L436.892 302.045L437.104 304H436.051L434.513 298.764L434.123 296.604H435.36ZM442.497 298.183V304H440.528V296.604H442.374L442.497 298.183ZM442.21 300.042H441.677C441.677 299.495 441.747 299.003 441.889 298.565C442.03 298.123 442.228 297.747 442.483 297.438C442.739 297.123 443.042 296.884 443.393 296.72C443.748 296.551 444.145 296.467 444.582 296.467C444.928 296.467 445.245 296.517 445.532 296.617C445.819 296.717 446.065 296.877 446.271 297.096C446.48 297.314 446.64 297.604 446.749 297.964C446.863 298.324 446.92 298.764 446.92 299.283V304H444.938V299.276C444.938 298.948 444.892 298.693 444.801 298.511C444.71 298.328 444.575 298.201 444.397 298.128C444.224 298.05 444.01 298.012 443.755 298.012C443.491 298.012 443.26 298.064 443.064 298.169C442.873 298.274 442.714 298.42 442.586 298.606C442.463 298.789 442.369 299.003 442.306 299.249C442.242 299.495 442.21 299.759 442.21 300.042ZM450.495 293.5V304H448.52V293.5H450.495ZM451.808 300.377V300.233C451.808 299.691 451.885 299.192 452.04 298.736C452.195 298.276 452.421 297.877 452.717 297.54C453.013 297.203 453.378 296.941 453.811 296.754C454.243 296.562 454.74 296.467 455.301 296.467C455.861 296.467 456.36 296.562 456.798 296.754C457.235 296.941 457.602 297.203 457.898 297.54C458.199 297.877 458.427 298.276 458.582 298.736C458.737 299.192 458.814 299.691 458.814 300.233V300.377C458.814 300.915 458.737 301.414 458.582 301.874C458.427 302.33 458.199 302.729 457.898 303.07C457.602 303.408 457.238 303.67 456.805 303.856C456.372 304.043 455.875 304.137 455.314 304.137C454.754 304.137 454.255 304.043 453.817 303.856C453.384 303.67 453.018 303.408 452.717 303.07C452.421 302.729 452.195 302.33 452.04 301.874C451.885 301.414 451.808 300.915 451.808 300.377ZM453.776 300.233V300.377C453.776 300.687 453.804 300.976 453.858 301.245C453.913 301.514 454 301.751 454.118 301.956C454.241 302.157 454.401 302.314 454.597 302.428C454.793 302.542 455.032 302.599 455.314 302.599C455.588 302.599 455.823 302.542 456.019 302.428C456.215 302.314 456.372 302.157 456.49 301.956C456.609 301.751 456.695 301.514 456.75 301.245C456.809 300.976 456.839 300.687 456.839 300.377V300.233C456.839 299.933 456.809 299.65 456.75 299.386C456.695 299.117 456.606 298.88 456.483 298.675C456.365 298.465 456.208 298.301 456.012 298.183C455.816 298.064 455.579 298.005 455.301 298.005C455.023 298.005 454.786 298.064 454.59 298.183C454.398 298.301 454.241 298.465 454.118 298.675C454 298.88 453.913 299.117 453.858 299.386C453.804 299.65 453.776 299.933 453.776 300.233ZM464.017 302.332V299.037C464.017 298.8 463.978 298.597 463.9 298.429C463.823 298.256 463.702 298.121 463.538 298.025C463.379 297.93 463.171 297.882 462.916 297.882C462.697 297.882 462.508 297.921 462.349 297.998C462.189 298.071 462.066 298.178 461.979 298.319C461.893 298.456 461.85 298.618 461.85 298.805H459.881C459.881 298.49 459.954 298.192 460.1 297.909C460.245 297.627 460.457 297.378 460.735 297.164C461.013 296.945 461.344 296.774 461.727 296.651C462.114 296.528 462.547 296.467 463.025 296.467C463.6 296.467 464.11 296.562 464.557 296.754C465.003 296.945 465.354 297.232 465.609 297.615C465.869 297.998 465.999 298.477 465.999 299.051V302.216C465.999 302.621 466.024 302.954 466.074 303.214C466.124 303.469 466.197 303.692 466.293 303.884V304H464.304C464.208 303.799 464.135 303.549 464.085 303.248C464.039 302.943 464.017 302.637 464.017 302.332ZM464.276 299.495L464.29 300.609H463.189C462.93 300.609 462.704 300.639 462.513 300.698C462.321 300.757 462.164 300.842 462.041 300.951C461.918 301.056 461.827 301.179 461.768 301.32C461.713 301.462 461.686 301.617 461.686 301.785C461.686 301.954 461.724 302.106 461.802 302.243C461.879 302.375 461.991 302.48 462.137 302.558C462.283 302.631 462.453 302.667 462.649 302.667C462.946 302.667 463.203 302.608 463.422 302.489C463.641 302.371 463.809 302.225 463.928 302.052C464.051 301.879 464.115 301.715 464.119 301.56L464.639 302.394C464.566 302.58 464.465 302.774 464.338 302.975C464.215 303.175 464.058 303.364 463.866 303.542C463.675 303.715 463.445 303.859 463.176 303.973C462.907 304.082 462.588 304.137 462.219 304.137C461.749 304.137 461.323 304.043 460.94 303.856C460.562 303.665 460.261 303.403 460.038 303.07C459.819 302.733 459.71 302.35 459.71 301.922C459.71 301.535 459.783 301.19 459.929 300.89C460.075 300.589 460.289 300.336 460.571 300.131C460.858 299.921 461.216 299.764 461.645 299.659C462.073 299.55 462.57 299.495 463.135 299.495H464.276ZM471.885 302.387V293.5H473.867V304H472.083L471.885 302.387ZM467.209 300.391V300.247C467.209 299.682 467.273 299.169 467.4 298.709C467.528 298.244 467.715 297.845 467.961 297.513C468.207 297.18 468.51 296.923 468.87 296.74C469.23 296.558 469.64 296.467 470.101 296.467C470.534 296.467 470.912 296.558 471.235 296.74C471.563 296.923 471.841 297.182 472.069 297.52C472.302 297.852 472.489 298.246 472.63 298.702C472.771 299.153 472.874 299.648 472.938 300.186V300.5C472.874 301.015 472.771 301.493 472.63 301.936C472.489 302.378 472.302 302.765 472.069 303.098C471.841 303.426 471.563 303.681 471.235 303.863C470.907 304.046 470.524 304.137 470.087 304.137C469.627 304.137 469.216 304.043 468.856 303.856C468.501 303.67 468.2 303.408 467.954 303.07C467.713 302.733 467.528 302.337 467.4 301.881C467.273 301.425 467.209 300.928 467.209 300.391ZM469.178 300.247V300.391C469.178 300.696 469.201 300.981 469.246 301.245C469.296 301.509 469.376 301.744 469.485 301.949C469.599 302.15 469.745 302.307 469.923 302.421C470.105 302.53 470.326 302.585 470.586 302.585C470.923 302.585 471.201 302.51 471.42 302.359C471.639 302.204 471.805 301.993 471.919 301.724C472.037 301.455 472.106 301.145 472.124 300.794V299.898C472.11 299.611 472.069 299.354 472.001 299.126C471.937 298.894 471.841 298.695 471.714 298.531C471.591 298.367 471.436 298.24 471.249 298.148C471.067 298.057 470.85 298.012 470.6 298.012C470.344 298.012 470.126 298.071 469.943 298.189C469.761 298.303 469.613 298.461 469.499 298.661C469.39 298.862 469.308 299.099 469.253 299.372C469.203 299.641 469.178 299.933 469.178 300.247Z" fill="black"/>
<rect width="74.0635" height="74.0635" rx="20" transform="matrix(0.710889 0.703305 -0.710889 0.703305 -22.3491 306.324)" fill="white"/>
<rect width="74.0635" height="74.0635" rx="20" transform="matrix(0.710889 0.703305 -0.710889 0.703305 42.8613 370.838)" fill="white"/>
<rect width="74.0635" height="74.0635" rx="20" transform="matrix(0.710889 0.703305 -0.710889 0.703305 105.21 306.492)" fill="white"/>
<rect width="74.0635" height="74.0635" rx="20" transform="matrix(0.710889 0.703305 -0.710889 0.703305 38.8242 244.365)" fill="white"/>
<path d="M274.227 214V181.36H286.995C289.587 181.36 291.779 181.712 293.571 182.416C295.395 183.12 296.851 184.144 297.939 185.488C299.027 186.832 299.811 188.496 300.291 190.48C300.771 192.432 301.011 194.672 301.011 197.2C301.011 199.728 300.787 202.032 300.339 204.112C299.891 206.16 299.139 207.936 298.083 209.44C297.027 210.912 295.603 212.048 293.811 212.848C292.051 213.616 289.859 214 287.235 214H274.227ZM281.811 207.664H286.755C288.163 207.664 289.299 207.408 290.163 206.896C291.059 206.352 291.731 205.616 292.179 204.688C292.627 203.728 292.931 202.608 293.091 201.328C293.251 200.048 293.331 198.672 293.331 197.2C293.331 195.728 293.235 194.416 293.043 193.264C292.883 192.112 292.563 191.12 292.083 190.288C291.635 189.424 290.979 188.768 290.115 188.32C289.251 187.872 288.131 187.648 286.755 187.648H281.811V207.664ZM315.239 214.576C312.519 214.576 310.343 214.128 308.711 213.232C307.111 212.336 305.959 210.976 305.255 209.152C304.583 207.328 304.247 205.024 304.247 202.24C304.247 199.328 304.663 196.928 305.495 195.04C306.359 193.12 307.623 191.696 309.287 190.768C310.951 189.808 313.047 189.328 315.575 189.328C319.287 189.328 322.071 190.224 323.927 192.016C325.815 193.808 326.759 196.64 326.759 200.512L326.375 204.304H311.591C311.623 205.84 311.943 206.992 312.551 207.76C313.191 208.496 314.279 208.864 315.815 208.864C316.807 208.864 317.911 208.848 319.127 208.816C320.375 208.752 321.607 208.688 322.823 208.624C324.039 208.56 325.079 208.496 325.943 208.432L326.087 213.424C325.255 213.584 324.215 213.76 322.967 213.952C321.719 214.112 320.423 214.256 319.079 214.384C317.735 214.512 316.455 214.576 315.239 214.576ZM311.543 199.84H319.415C319.415 197.92 319.111 196.592 318.503 195.856C317.895 195.088 316.919 194.704 315.575 194.704C314.231 194.704 313.223 195.104 312.551 195.904C311.911 196.672 311.575 197.984 311.543 199.84ZM330.469 214V189.856H337.765V191.344C338.501 190.896 339.477 190.448 340.693 190C341.909 189.552 343.077 189.328 344.197 189.328C345.637 189.328 346.805 189.536 347.701 189.952C348.629 190.336 349.381 190.896 349.957 191.632C350.533 191.28 351.237 190.928 352.069 190.576C352.933 190.224 353.861 189.936 354.853 189.712C355.845 189.456 356.821 189.328 357.781 189.328C360.181 189.328 362.021 189.76 363.301 190.624C364.581 191.456 365.461 192.784 365.941 194.608C366.453 196.4 366.709 198.704 366.709 201.52V214H359.413V202.24C359.413 200.736 359.333 199.504 359.173 198.544C359.013 197.584 358.693 196.88 358.213 196.432C357.733 195.952 357.045 195.712 356.149 195.712C355.349 195.712 354.549 195.824 353.749 196.048C352.949 196.272 352.325 196.496 351.877 196.72C352.069 197.296 352.197 198.096 352.261 199.12C352.325 200.112 352.357 201.136 352.357 202.192V214H345.013V202.336C345.013 200.768 344.933 199.504 344.773 198.544C344.613 197.584 344.293 196.88 343.813 196.432C343.365 195.952 342.693 195.712 341.797 195.712C341.029 195.712 340.261 195.824 339.493 196.048C338.757 196.24 338.197 196.448 337.813 196.672V214H330.469ZM381.956 214.576C379.236 214.576 377.012 214.144 375.284 213.28C373.588 212.384 372.34 210.992 371.54 209.104C370.772 207.216 370.388 204.784 370.388 201.808C370.388 198.864 370.788 196.48 371.588 194.656C372.42 192.832 373.7 191.488 375.428 190.624C377.156 189.76 379.332 189.328 381.956 189.328C384.644 189.328 386.836 189.76 388.532 190.624C390.26 191.488 391.524 192.832 392.324 194.656C393.156 196.48 393.572 198.864 393.572 201.808C393.572 204.784 393.172 207.216 392.372 209.104C391.604 210.992 390.356 212.384 388.628 213.28C386.932 214.144 384.708 214.576 381.956 214.576ZM381.956 208.528C383.14 208.528 384.02 208.304 384.596 207.856C385.204 207.408 385.604 206.688 385.796 205.696C386.02 204.704 386.132 203.408 386.132 201.808C386.132 200.176 386.004 198.896 385.748 197.968C385.492 197.04 385.06 196.368 384.452 195.952C383.876 195.536 383.044 195.328 381.956 195.328C380.9 195.328 380.068 195.536 379.46 195.952C378.852 196.368 378.42 197.056 378.164 198.016C377.908 198.944 377.78 200.208 377.78 201.808C377.78 203.408 377.892 204.704 378.116 205.696C378.34 206.688 378.74 207.408 379.316 207.856C379.924 208.304 380.804 208.528 381.956 208.528ZM407.678 214.576C404.83 214.576 402.606 214.16 401.006 213.328C399.406 212.464 398.286 211.088 397.646 209.2C397.006 207.312 396.686 204.832 396.686 201.76C396.686 198.656 397.054 196.208 397.79 194.416C398.526 192.592 399.694 191.296 401.294 190.528C402.926 189.728 405.054 189.328 407.678 189.328C408.414 189.328 409.246 189.376 410.174 189.472C411.102 189.568 412.03 189.696 412.958 189.856C413.886 190.016 414.686 190.176 415.358 190.336L415.118 196.192C414.478 196.128 413.758 196.064 412.958 196C412.158 195.936 411.39 195.888 410.654 195.856C409.918 195.792 409.326 195.76 408.878 195.76C407.662 195.76 406.702 195.952 405.998 196.336C405.294 196.72 404.798 197.36 404.51 198.256C404.222 199.12 404.078 200.288 404.078 201.76C404.078 203.296 404.206 204.544 404.462 205.504C404.75 206.432 405.23 207.104 405.902 207.52C406.606 207.904 407.598 208.096 408.878 208.096C409.326 208.096 409.918 208.08 410.654 208.048C411.422 207.984 412.206 207.92 413.006 207.856C413.838 207.792 414.574 207.744 415.214 207.712L415.406 213.52C414.766 213.68 413.982 213.84 413.054 214C412.158 214.128 411.23 214.256 410.27 214.384C409.31 214.512 408.446 214.576 407.678 214.576ZM419.11 214V189.856H426.454V192.592C426.966 192.176 427.606 191.744 428.374 191.296C429.142 190.816 429.958 190.384 430.822 190C431.686 189.616 432.518 189.376 433.318 189.28V196.288C432.55 196.384 431.734 196.576 430.87 196.864C430.006 197.12 429.19 197.424 428.422 197.776C427.654 198.096 426.998 198.4 426.454 198.688V214H419.11ZM442.985 214.576C440.361 214.576 438.393 213.936 437.081 212.656C435.801 211.376 435.161 209.424 435.161 206.8C435.161 204.944 435.497 203.52 436.169 202.528C436.873 201.504 437.881 200.768 439.193 200.32C440.505 199.872 442.089 199.6 443.945 199.504L449.321 199.072V197.824C449.321 196.864 449.049 196.192 448.505 195.808C447.993 195.392 447.225 195.184 446.201 195.184C445.273 195.184 444.217 195.216 443.033 195.28C441.849 195.344 440.681 195.424 439.529 195.52C438.377 195.616 437.385 195.712 436.553 195.808L436.313 190.72C437.177 190.496 438.201 190.288 439.385 190.096C440.601 189.872 441.865 189.696 443.177 189.568C444.489 189.408 445.721 189.328 446.873 189.328C448.953 189.328 450.713 189.584 452.153 190.096C453.625 190.576 454.745 191.408 455.513 192.592C456.281 193.744 456.665 195.36 456.665 197.44V208C456.761 208.384 456.985 208.688 457.337 208.912C457.721 209.104 458.137 209.248 458.585 209.344L458.441 214.24C457.705 214.304 456.921 214.352 456.089 214.384C455.289 214.416 454.649 214.4 454.169 214.336C453.337 214.24 452.617 214.048 452.009 213.76C451.433 213.44 451.001 213.12 450.713 212.8C450.201 213.024 449.529 213.28 448.697 213.568C447.865 213.856 446.953 214.096 445.961 214.288C445.001 214.48 444.009 214.576 442.985 214.576ZM444.809 209.248C445.353 209.248 445.897 209.184 446.441 209.056C447.017 208.928 447.561 208.784 448.073 208.624C448.585 208.464 449.001 208.32 449.321 208.192V203.44L445.097 203.824C444.201 203.92 443.545 204.208 443.129 204.688C442.713 205.136 442.505 205.776 442.505 206.608C442.505 207.408 442.697 208.048 443.081 208.528C443.465 209.008 444.041 209.248 444.809 209.248ZM470.406 214.576C468.614 214.576 467.158 214.336 466.038 213.856C464.918 213.344 464.102 212.464 463.59 211.216C463.11 209.936 462.87 208.144 462.87 205.84V195.904H460.278V189.856H462.87V183.856H470.214V189.856H475.878V195.904H470.214V204.016C470.214 205.104 470.262 205.952 470.358 206.56C470.486 207.168 470.726 207.6 471.078 207.856C471.43 208.112 471.958 208.24 472.662 208.24C472.854 208.24 473.158 208.224 473.574 208.192C473.99 208.16 474.406 208.144 474.822 208.144C475.27 208.112 475.606 208.08 475.83 208.048L476.022 213.856C475.222 214.016 474.262 214.176 473.142 214.336C472.054 214.496 471.142 214.576 470.406 214.576ZM479.11 214V189.856H486.454V214H479.11ZM479.11 186.496V180.64H486.454V186.496H479.11ZM490.389 214V207.856L500.469 196.336H490.389V189.856H510.165V195.76L499.941 207.568H510.213V214H490.389ZM514.079 214V189.856H521.423V214H514.079ZM514.079 186.496V180.64H521.423V186.496H514.079ZM526.125 214V189.856H533.421V191.344C533.933 191.024 534.541 190.72 535.245 190.432C535.949 190.112 536.685 189.856 537.453 189.664C538.253 189.44 539.005 189.328 539.709 189.328C541.981 189.328 543.741 189.728 544.989 190.528C546.269 191.296 547.165 192.592 547.677 194.416C548.221 196.208 548.493 198.592 548.493 201.568V214H541.149V202C541.149 200.496 541.053 199.28 540.861 198.352C540.669 197.424 540.333 196.752 539.853 196.336C539.373 195.92 538.685 195.712 537.789 195.712C537.277 195.712 536.749 195.76 536.205 195.856C535.661 195.952 535.149 196.08 534.669 196.24C534.189 196.4 533.789 196.56 533.469 196.72V214H526.125ZM563.978 224.896C561.418 224.896 559.242 224.704 557.45 224.32C555.658 223.968 554.298 223.296 553.37 222.304C552.474 221.312 552.026 219.872 552.026 217.984C552.026 217.152 552.138 216.416 552.362 215.776C552.586 215.136 552.954 214.528 553.466 213.952C553.978 213.344 554.634 212.736 555.434 212.128C554.986 211.776 554.618 211.296 554.33 210.688C554.042 210.048 553.898 209.36 553.898 208.624C553.898 208.24 554.138 207.68 554.618 206.944C555.13 206.208 555.642 205.568 556.154 205.024C555.514 204.704 554.906 204.272 554.33 203.728C553.754 203.152 553.274 202.384 552.89 201.424C552.506 200.464 552.314 199.248 552.314 197.776C552.314 194.672 553.194 192.496 554.954 191.248C556.714 189.968 559.322 189.328 562.778 189.328C563.578 189.328 564.458 189.392 565.418 189.52C566.41 189.616 567.194 189.744 567.77 189.904L575.786 189.712V194.512L572.426 194.464C572.714 194.816 572.954 195.264 573.146 195.808C573.338 196.352 573.434 197.008 573.434 197.776C573.434 200.016 573.05 201.744 572.282 202.96C571.514 204.176 570.362 205.024 568.826 205.504C567.29 205.952 565.322 206.176 562.922 206.176C562.666 206.176 562.33 206.16 561.914 206.128C561.498 206.064 561.146 206.016 560.858 205.984C560.762 206.24 560.65 206.544 560.522 206.896C560.394 207.216 560.33 207.456 560.33 207.616C560.33 207.968 560.474 208.24 560.762 208.432C561.05 208.624 561.626 208.752 562.49 208.816C563.354 208.88 564.65 208.912 566.378 208.912C568.65 208.912 570.458 209.136 571.802 209.584C573.146 210 574.106 210.752 574.682 211.84C575.258 212.896 575.546 214.384 575.546 216.304C575.546 219.184 574.522 221.328 572.474 222.736C570.426 224.176 567.594 224.896 563.978 224.896ZM563.546 219.568C565.402 219.568 566.73 219.376 567.53 218.992C568.33 218.608 568.73 217.968 568.73 217.072C568.73 216.4 568.586 215.888 568.298 215.536C568.01 215.216 567.53 215.008 566.858 214.912C566.218 214.816 565.338 214.768 564.218 214.768C563.898 214.768 563.514 214.752 563.066 214.72C562.618 214.72 562.186 214.704 561.77 214.672C561.354 214.672 560.97 214.656 560.618 214.624C560.266 214.624 560.01 214.608 559.85 214.576C559.242 214.992 558.826 215.376 558.602 215.728C558.41 216.08 558.314 216.544 558.314 217.12C558.314 217.728 558.474 218.208 558.794 218.56C559.146 218.912 559.706 219.168 560.474 219.328C561.242 219.488 562.266 219.568 563.546 219.568ZM562.826 201.136C564.106 201.136 565.018 200.88 565.562 200.368C566.138 199.824 566.426 198.944 566.426 197.728C566.426 196.512 566.138 195.648 565.562 195.136C565.018 194.592 564.106 194.32 562.826 194.32C561.578 194.32 560.682 194.592 560.138 195.136C559.594 195.648 559.322 196.512 559.322 197.728C559.322 198.944 559.594 199.824 560.138 200.368C560.682 200.88 561.578 201.136 562.826 201.136ZM345.032 264V231.36H366.632V237.648H352.616V246.528H363.944V252.864H352.616V264H345.032ZM369.821 264V239.856H377.165V264H369.821ZM369.821 236.496V230.64H377.165V236.496H369.821ZM381.868 264V239.856H389.164V241.344C389.676 241.024 390.284 240.72 390.988 240.432C391.692 240.112 392.428 239.856 393.196 239.664C393.996 239.44 394.748 239.328 395.452 239.328C397.724 239.328 399.484 239.728 400.732 240.528C402.012 241.296 402.908 242.592 403.42 244.416C403.964 246.208 404.236 248.592 404.236 251.568V264H396.892V252C396.892 250.496 396.796 249.28 396.604 248.352C396.412 247.424 396.076 246.752 395.596 246.336C395.116 245.92 394.428 245.712 393.532 245.712C393.02 245.712 392.492 245.76 391.948 245.856C391.404 245.952 390.892 246.08 390.412 246.24C389.932 246.4 389.532 246.56 389.212 246.72V264H381.868ZM415.352 264.576C412.728 264.576 410.76 263.936 409.448 262.656C408.168 261.376 407.528 259.424 407.528 256.8C407.528 254.944 407.864 253.52 408.536 252.528C409.24 251.504 410.248 250.768 411.56 250.32C412.872 249.872 414.456 249.6 416.312 249.504L421.688 249.072V247.824C421.688 246.864 421.416 246.192 420.872 245.808C420.36 245.392 419.592 245.184 418.568 245.184C417.64 245.184 416.584 245.216 415.4 245.28C414.216 245.344 413.048 245.424 411.896 245.52C410.744 245.616 409.752 245.712 408.92 245.808L408.68 240.72C409.544 240.496 410.568 240.288 411.752 240.096C412.968 239.872 414.232 239.696 415.544 239.568C416.856 239.408 418.088 239.328 419.24 239.328C421.32 239.328 423.08 239.584 424.52 240.096C425.992 240.576 427.112 241.408 427.88 242.592C428.648 243.744 429.032 245.36 429.032 247.44V258C429.128 258.384 429.352 258.688 429.704 258.912C430.088 259.104 430.504 259.248 430.952 259.344L430.808 264.24C430.072 264.304 429.288 264.352 428.456 264.384C427.656 264.416 427.016 264.4 426.536 264.336C425.704 264.24 424.984 264.048 424.376 263.76C423.8 263.44 423.368 263.12 423.08 262.8C422.568 263.024 421.896 263.28 421.064 263.568C420.232 263.856 419.32 264.096 418.328 264.288C417.368 264.48 416.376 264.576 415.352 264.576ZM417.176 259.248C417.72 259.248 418.264 259.184 418.808 259.056C419.384 258.928 419.928 258.784 420.44 258.624C420.952 258.464 421.368 258.32 421.688 258.192V253.44L417.464 253.824C416.568 253.92 415.912 254.208 415.496 254.688C415.08 255.136 414.872 255.776 414.872 256.608C414.872 257.408 415.064 258.048 415.448 258.528C415.832 259.008 416.408 259.248 417.176 259.248ZM434.133 264V239.856H441.429V241.344C441.941 241.024 442.549 240.72 443.253 240.432C443.957 240.112 444.693 239.856 445.461 239.664C446.261 239.44 447.013 239.328 447.717 239.328C449.989 239.328 451.749 239.728 452.997 240.528C454.277 241.296 455.173 242.592 455.685 244.416C456.229 246.208 456.501 248.592 456.501 251.568V264H449.157V252C449.157 250.496 449.061 249.28 448.869 248.352C448.677 247.424 448.341 246.752 447.861 246.336C447.381 245.92 446.693 245.712 445.797 245.712C445.285 245.712 444.757 245.76 444.213 245.856C443.669 245.952 443.157 246.08 442.677 246.24C442.197 246.4 441.797 246.56 441.477 246.72V264H434.133ZM471.17 264.576C468.322 264.576 466.098 264.16 464.498 263.328C462.898 262.464 461.778 261.088 461.138 259.2C460.498 257.312 460.178 254.832 460.178 251.76C460.178 248.656 460.546 246.208 461.282 244.416C462.018 242.592 463.186 241.296 464.786 240.528C466.418 239.728 468.546 239.328 471.17 239.328C471.906 239.328 472.738 239.376 473.666 239.472C474.594 239.568 475.522 239.696 476.45 239.856C477.378 240.016 478.178 240.176 478.85 240.336L478.61 246.192C477.97 246.128 477.25 246.064 476.45 246C475.65 245.936 474.882 245.888 474.146 245.856C473.41 245.792 472.818 245.76 472.37 245.76C471.154 245.76 470.194 245.952 469.49 246.336C468.786 246.72 468.29 247.36 468.002 248.256C467.714 249.12 467.57 250.288 467.57 251.76C467.57 253.296 467.698 254.544 467.954 255.504C468.242 256.432 468.722 257.104 469.394 257.52C470.098 257.904 471.09 258.096 472.37 258.096C472.818 258.096 473.41 258.08 474.146 258.048C474.914 257.984 475.698 257.92 476.498 257.856C477.33 257.792 478.066 257.744 478.706 257.712L478.898 263.52C478.258 263.68 477.474 263.84 476.546 264C475.65 264.128 474.722 264.256 473.762 264.384C472.802 264.512 471.938 264.576 471.17 264.576ZM492.778 264.576C490.058 264.576 487.882 264.128 486.25 263.232C484.65 262.336 483.498 260.976 482.794 259.152C482.122 257.328 481.786 255.024 481.786 252.24C481.786 249.328 482.202 246.928 483.034 245.04C483.898 243.12 485.162 241.696 486.826 240.768C488.49 239.808 490.586 239.328 493.114 239.328C496.826 239.328 499.61 240.224 501.466 242.016C503.354 243.808 504.298 246.64 504.298 250.512L503.914 254.304H489.13C489.162 255.84 489.482 256.992 490.09 257.76C490.73 258.496 491.818 258.864 493.354 258.864C494.346 258.864 495.45 258.848 496.666 258.816C497.914 258.752 499.146 258.688 500.362 258.624C501.578 258.56 502.618 258.496 503.482 258.432L503.626 263.424C502.794 263.584 501.754 263.76 500.506 263.952C499.258 264.112 497.962 264.256 496.618 264.384C495.274 264.512 493.994 264.576 492.778 264.576ZM489.082 249.84H496.954C496.954 247.92 496.65 246.592 496.042 245.856C495.434 245.088 494.458 244.704 493.114 244.704C491.77 244.704 490.762 245.104 490.09 245.904C489.45 246.672 489.114 247.984 489.082 249.84Z" fill="white"/>
</g>
<path d="M317.353 336.27L318.85 334.403L316.676 333.788L317.086 332.585L319.219 333.433L319.089 331.047H320.415L320.271 333.48L322.363 332.64L322.767 333.863L320.559 334.479L322.008 336.304L320.935 337.056L319.677 335.06L318.426 336.994L317.353 336.27ZM327.237 333.604V334.998H322.931V333.604H327.237ZM323.997 331.778H325.966V338.771C325.966 338.986 325.993 339.15 326.048 339.264C326.107 339.378 326.194 339.457 326.308 339.503C326.422 339.544 326.565 339.564 326.738 339.564C326.861 339.564 326.971 339.56 327.066 339.551C327.167 339.537 327.251 339.523 327.319 339.51L327.326 340.959C327.158 341.014 326.975 341.057 326.779 341.089C326.583 341.121 326.367 341.137 326.13 341.137C325.697 341.137 325.319 341.066 324.995 340.925C324.676 340.779 324.43 340.547 324.257 340.228C324.084 339.909 323.997 339.489 323.997 338.97V331.778ZM330.279 330.5V341H328.311V330.5H330.279ZM329.999 337.042H329.459C329.464 336.527 329.532 336.053 329.664 335.62C329.796 335.183 329.985 334.804 330.231 334.485C330.478 334.162 330.771 333.911 331.113 333.733C331.46 333.556 331.842 333.467 332.262 333.467C332.626 333.467 332.957 333.519 333.253 333.624C333.554 333.724 333.811 333.888 334.025 334.116C334.244 334.34 334.413 334.633 334.531 334.998C334.65 335.363 334.709 335.805 334.709 336.324V341H332.727V336.311C332.727 335.982 332.679 335.725 332.583 335.538C332.492 335.347 332.357 335.212 332.18 335.135C332.007 335.053 331.792 335.012 331.537 335.012C331.255 335.012 331.013 335.064 330.812 335.169C330.617 335.274 330.459 335.42 330.341 335.606C330.222 335.789 330.136 336.003 330.081 336.249C330.026 336.495 329.999 336.759 329.999 337.042ZM338.284 333.604V341H336.309V333.604H338.284ZM336.186 331.676C336.186 331.389 336.286 331.152 336.486 330.965C336.687 330.778 336.956 330.685 337.293 330.685C337.626 330.685 337.892 330.778 338.093 330.965C338.298 331.152 338.4 331.389 338.4 331.676C338.4 331.963 338.298 332.2 338.093 332.387C337.892 332.574 337.626 332.667 337.293 332.667C336.956 332.667 336.687 332.574 336.486 332.387C336.286 332.2 336.186 331.963 336.186 331.676ZM343.91 338.956C343.91 338.815 343.869 338.687 343.787 338.573C343.705 338.459 343.552 338.354 343.329 338.259C343.11 338.159 342.794 338.067 342.379 337.985C342.005 337.903 341.657 337.801 341.333 337.678C341.014 337.55 340.736 337.397 340.499 337.22C340.267 337.042 340.084 336.832 339.952 336.591C339.82 336.345 339.754 336.064 339.754 335.75C339.754 335.44 339.82 335.148 339.952 334.875C340.089 334.602 340.283 334.36 340.533 334.15C340.788 333.936 341.098 333.77 341.463 333.651C341.832 333.528 342.247 333.467 342.707 333.467C343.35 333.467 343.901 333.569 344.361 333.774C344.826 333.979 345.182 334.262 345.428 334.622C345.678 334.978 345.804 335.383 345.804 335.839H343.835C343.835 335.647 343.794 335.477 343.712 335.326C343.634 335.171 343.511 335.05 343.343 334.964C343.179 334.873 342.965 334.827 342.7 334.827C342.481 334.827 342.292 334.866 342.133 334.943C341.973 335.016 341.85 335.117 341.764 335.244C341.682 335.367 341.641 335.504 341.641 335.654C341.641 335.768 341.663 335.871 341.709 335.962C341.759 336.049 341.839 336.128 341.948 336.201C342.058 336.274 342.199 336.342 342.372 336.406C342.55 336.465 342.769 336.52 343.028 336.57C343.562 336.68 344.038 336.823 344.457 337.001C344.876 337.174 345.209 337.411 345.455 337.712C345.701 338.008 345.824 338.398 345.824 338.881C345.824 339.209 345.751 339.51 345.605 339.783C345.46 340.057 345.25 340.296 344.977 340.501C344.703 340.701 344.375 340.859 343.992 340.973C343.614 341.082 343.188 341.137 342.714 341.137C342.026 341.137 341.442 341.014 340.964 340.768C340.49 340.521 340.13 340.209 339.884 339.831C339.642 339.448 339.521 339.056 339.521 338.655H341.388C341.397 338.924 341.465 339.141 341.593 339.305C341.725 339.469 341.891 339.587 342.092 339.66C342.297 339.733 342.518 339.77 342.755 339.77C343.01 339.77 343.222 339.735 343.391 339.667C343.559 339.594 343.687 339.498 343.773 339.38C343.865 339.257 343.91 339.116 343.91 338.956ZM352.667 333.604V341H350.691V333.604H352.667ZM350.568 331.676C350.568 331.389 350.669 331.152 350.869 330.965C351.07 330.778 351.339 330.685 351.676 330.685C352.008 330.685 352.275 330.778 352.476 330.965C352.681 331.152 352.783 331.389 352.783 331.676C352.783 331.963 352.681 332.2 352.476 332.387C352.275 332.574 352.008 332.667 351.676 332.667C351.339 332.667 351.07 332.574 350.869 332.387C350.669 332.2 350.568 331.963 350.568 331.676ZM358.293 338.956C358.293 338.815 358.252 338.687 358.17 338.573C358.088 338.459 357.935 338.354 357.712 338.259C357.493 338.159 357.176 338.067 356.762 337.985C356.388 337.903 356.039 337.801 355.716 337.678C355.397 337.55 355.119 337.397 354.882 337.22C354.649 337.042 354.467 336.832 354.335 336.591C354.203 336.345 354.137 336.064 354.137 335.75C354.137 335.44 354.203 335.148 354.335 334.875C354.472 334.602 354.665 334.36 354.916 334.15C355.171 333.936 355.481 333.77 355.846 333.651C356.215 333.528 356.63 333.467 357.09 333.467C357.732 333.467 358.284 333.569 358.744 333.774C359.209 333.979 359.564 334.262 359.811 334.622C360.061 334.978 360.187 335.383 360.187 335.839H358.218C358.218 335.647 358.177 335.477 358.095 335.326C358.017 335.171 357.894 335.05 357.726 334.964C357.562 334.873 357.347 334.827 357.083 334.827C356.864 334.827 356.675 334.866 356.516 334.943C356.356 335.016 356.233 335.117 356.146 335.244C356.064 335.367 356.023 335.504 356.023 335.654C356.023 335.768 356.046 335.871 356.092 335.962C356.142 336.049 356.222 336.128 356.331 336.201C356.44 336.274 356.582 336.342 356.755 336.406C356.933 336.465 357.151 336.52 357.411 336.57C357.944 336.68 358.421 336.823 358.84 337.001C359.259 337.174 359.592 337.411 359.838 337.712C360.084 338.008 360.207 338.398 360.207 338.881C360.207 339.209 360.134 339.51 359.988 339.783C359.842 340.057 359.633 340.296 359.359 340.501C359.086 340.701 358.758 340.859 358.375 340.973C357.997 341.082 357.571 341.137 357.097 341.137C356.409 341.137 355.825 341.014 355.347 340.768C354.873 340.521 354.513 340.209 354.267 339.831C354.025 339.448 353.904 339.056 353.904 338.655H355.771C355.78 338.924 355.848 339.141 355.976 339.305C356.108 339.469 356.274 339.587 356.475 339.66C356.68 339.733 356.901 339.77 357.138 339.77C357.393 339.77 357.605 339.735 357.773 339.667C357.942 339.594 358.07 339.498 358.156 339.38C358.247 339.257 358.293 339.116 358.293 338.956ZM365.081 333.604H367.057V341.444C367.057 341.991 366.956 342.454 366.756 342.832C366.555 343.21 366.266 343.497 365.888 343.693C365.509 343.889 365.051 343.987 364.514 343.987C364.345 343.987 364.181 343.978 364.021 343.96C363.857 343.942 363.689 343.912 363.516 343.871L363.522 342.36C363.632 342.379 363.739 342.392 363.844 342.401C363.944 342.415 364.047 342.422 364.151 342.422C364.356 342.422 364.527 342.388 364.664 342.319C364.801 342.251 364.903 342.144 364.972 341.998C365.045 341.857 365.081 341.672 365.081 341.444V333.604ZM364.924 331.676C364.924 331.389 365.024 331.152 365.225 330.965C365.43 330.778 365.699 330.685 366.031 330.685C366.368 330.685 366.637 330.778 366.838 330.965C367.038 331.152 367.139 331.389 367.139 331.676C367.139 331.963 367.038 332.2 366.838 332.387C366.637 332.574 366.368 332.667 366.031 332.667C365.699 332.667 365.43 332.574 365.225 332.387C365.024 332.2 364.924 331.963 364.924 331.676ZM372.997 339.229V333.604H374.966V341H373.113L372.997 339.229ZM373.216 337.712L373.797 337.698C373.797 338.19 373.74 338.648 373.626 339.072C373.512 339.492 373.341 339.856 373.113 340.166C372.885 340.471 372.598 340.711 372.252 340.884C371.906 341.052 371.498 341.137 371.028 341.137C370.668 341.137 370.336 341.087 370.03 340.986C369.729 340.882 369.47 340.72 369.251 340.501C369.037 340.278 368.868 339.993 368.745 339.646C368.627 339.296 368.567 338.874 368.567 338.382V333.604H370.536V338.396C370.536 338.614 370.561 338.799 370.611 338.949C370.666 339.1 370.741 339.223 370.837 339.318C370.933 339.414 371.044 339.482 371.172 339.523C371.304 339.564 371.45 339.585 371.609 339.585C372.015 339.585 372.334 339.503 372.566 339.339C372.803 339.175 372.97 338.951 373.065 338.669C373.166 338.382 373.216 338.063 373.216 337.712ZM380.469 338.956C380.469 338.815 380.428 338.687 380.346 338.573C380.264 338.459 380.111 338.354 379.888 338.259C379.669 338.159 379.352 338.067 378.938 337.985C378.564 337.903 378.215 337.801 377.892 337.678C377.573 337.55 377.295 337.397 377.058 337.22C376.825 337.042 376.643 336.832 376.511 336.591C376.379 336.345 376.312 336.064 376.312 335.75C376.312 335.44 376.379 335.148 376.511 334.875C376.647 334.602 376.841 334.36 377.092 334.15C377.347 333.936 377.657 333.77 378.021 333.651C378.391 333.528 378.805 333.467 379.266 333.467C379.908 333.467 380.46 333.569 380.92 333.774C381.385 333.979 381.74 334.262 381.986 334.622C382.237 334.978 382.362 335.383 382.362 335.839H380.394C380.394 335.647 380.353 335.477 380.271 335.326C380.193 335.171 380.07 335.05 379.901 334.964C379.737 334.873 379.523 334.827 379.259 334.827C379.04 334.827 378.851 334.866 378.691 334.943C378.532 335.016 378.409 335.117 378.322 335.244C378.24 335.367 378.199 335.504 378.199 335.654C378.199 335.768 378.222 335.871 378.268 335.962C378.318 336.049 378.397 336.128 378.507 336.201C378.616 336.274 378.757 336.342 378.931 336.406C379.108 336.465 379.327 336.52 379.587 336.57C380.12 336.68 380.596 336.823 381.016 337.001C381.435 337.174 381.768 337.411 382.014 337.712C382.26 338.008 382.383 338.398 382.383 338.881C382.383 339.209 382.31 339.51 382.164 339.783C382.018 340.057 381.809 340.296 381.535 340.501C381.262 340.701 380.934 340.859 380.551 340.973C380.173 341.082 379.746 341.137 379.272 341.137C378.584 341.137 378.001 341.014 377.522 340.768C377.049 340.521 376.688 340.209 376.442 339.831C376.201 339.448 376.08 339.056 376.08 338.655H377.946C377.955 338.924 378.024 339.141 378.151 339.305C378.284 339.469 378.45 339.587 378.65 339.66C378.855 339.733 379.076 339.77 379.313 339.77C379.569 339.77 379.781 339.735 379.949 339.667C380.118 339.594 380.245 339.498 380.332 339.38C380.423 339.257 380.469 339.116 380.469 338.956ZM387.284 333.604V334.998H382.978V333.604H387.284ZM384.044 331.778H386.013V338.771C386.013 338.986 386.04 339.15 386.095 339.264C386.154 339.378 386.241 339.457 386.354 339.503C386.468 339.544 386.612 339.564 386.785 339.564C386.908 339.564 387.018 339.56 387.113 339.551C387.214 339.537 387.298 339.523 387.366 339.51L387.373 340.959C387.204 341.014 387.022 341.057 386.826 341.089C386.63 341.121 386.414 341.137 386.177 341.137C385.744 341.137 385.366 341.066 385.042 340.925C384.723 340.779 384.477 340.547 384.304 340.228C384.131 339.909 384.044 339.489 384.044 338.97V331.778ZM395.884 339.332V336.037C395.884 335.8 395.845 335.597 395.768 335.429C395.69 335.256 395.569 335.121 395.405 335.025C395.246 334.93 395.038 334.882 394.783 334.882C394.564 334.882 394.375 334.921 394.216 334.998C394.056 335.071 393.933 335.178 393.847 335.319C393.76 335.456 393.717 335.618 393.717 335.805H391.748C391.748 335.49 391.821 335.192 391.967 334.909C392.113 334.627 392.325 334.378 392.603 334.164C392.881 333.945 393.211 333.774 393.594 333.651C393.981 333.528 394.414 333.467 394.893 333.467C395.467 333.467 395.977 333.562 396.424 333.754C396.87 333.945 397.221 334.232 397.477 334.615C397.736 334.998 397.866 335.477 397.866 336.051V339.216C397.866 339.621 397.891 339.954 397.941 340.214C397.992 340.469 398.064 340.692 398.16 340.884V341H396.171C396.075 340.799 396.002 340.549 395.952 340.248C395.907 339.943 395.884 339.637 395.884 339.332ZM396.144 336.495L396.157 337.609H395.057C394.797 337.609 394.571 337.639 394.38 337.698C394.188 337.757 394.031 337.842 393.908 337.951C393.785 338.056 393.694 338.179 393.635 338.32C393.58 338.462 393.553 338.617 393.553 338.785C393.553 338.954 393.591 339.106 393.669 339.243C393.746 339.375 393.858 339.48 394.004 339.558C394.15 339.631 394.321 339.667 394.517 339.667C394.813 339.667 395.07 339.608 395.289 339.489C395.508 339.371 395.676 339.225 395.795 339.052C395.918 338.879 395.982 338.715 395.986 338.56L396.506 339.394C396.433 339.58 396.333 339.774 396.205 339.975C396.082 340.175 395.925 340.364 395.733 340.542C395.542 340.715 395.312 340.859 395.043 340.973C394.774 341.082 394.455 341.137 394.086 341.137C393.617 341.137 393.19 341.043 392.808 340.856C392.429 340.665 392.129 340.403 391.905 340.07C391.687 339.733 391.577 339.35 391.577 338.922C391.577 338.535 391.65 338.19 391.796 337.89C391.942 337.589 392.156 337.336 392.438 337.131C392.726 336.921 393.083 336.764 393.512 336.659C393.94 336.55 394.437 336.495 395.002 336.495H396.144ZM402.87 330.5H404.839V339.305L404.641 341H402.87V330.5ZM409.521 337.227V337.37C409.521 337.922 409.462 338.427 409.344 338.888C409.23 339.348 409.052 339.747 408.811 340.084C408.569 340.417 408.268 340.676 407.908 340.863C407.553 341.046 407.133 341.137 406.65 341.137C406.199 341.137 405.807 341.046 405.475 340.863C405.146 340.681 404.871 340.424 404.647 340.091C404.424 339.758 404.244 339.368 404.107 338.922C403.971 338.475 403.868 337.988 403.8 337.459V337.145C403.868 336.616 403.971 336.128 404.107 335.682C404.244 335.235 404.424 334.845 404.647 334.513C404.871 334.18 405.146 333.923 405.475 333.74C405.803 333.558 406.19 333.467 406.637 333.467C407.124 333.467 407.548 333.56 407.908 333.747C408.273 333.929 408.574 334.189 408.811 334.526C409.052 334.859 409.23 335.256 409.344 335.716C409.462 336.172 409.521 336.675 409.521 337.227ZM407.553 337.37V337.227C407.553 336.926 407.53 336.643 407.484 336.379C407.443 336.11 407.37 335.875 407.266 335.675C407.161 335.47 407.017 335.308 406.835 335.189C406.657 335.071 406.427 335.012 406.145 335.012C405.876 335.012 405.648 335.057 405.461 335.148C405.274 335.24 405.119 335.367 404.996 335.531C404.878 335.695 404.789 335.891 404.729 336.119C404.67 336.342 404.634 336.589 404.62 336.857V337.753C404.634 338.113 404.693 338.432 404.798 338.71C404.907 338.983 405.071 339.2 405.29 339.359C405.513 339.514 405.803 339.592 406.158 339.592C406.436 339.592 406.666 339.537 406.849 339.428C407.031 339.318 407.172 339.163 407.272 338.963C407.377 338.762 407.45 338.528 407.491 338.259C407.532 337.985 407.553 337.689 407.553 337.37ZM414.737 339.332V336.037C414.737 335.8 414.699 335.597 414.621 335.429C414.544 335.256 414.423 335.121 414.259 335.025C414.099 334.93 413.892 334.882 413.637 334.882C413.418 334.882 413.229 334.921 413.069 334.998C412.91 335.071 412.787 335.178 412.7 335.319C412.614 335.456 412.57 335.618 412.57 335.805H410.602C410.602 335.49 410.674 335.192 410.82 334.909C410.966 334.627 411.178 334.378 411.456 334.164C411.734 333.945 412.064 333.774 412.447 333.651C412.835 333.528 413.268 333.467 413.746 333.467C414.32 333.467 414.831 333.562 415.277 333.754C415.724 333.945 416.075 334.232 416.33 334.615C416.59 334.998 416.72 335.477 416.72 336.051V339.216C416.72 339.621 416.745 339.954 416.795 340.214C416.845 340.469 416.918 340.692 417.014 340.884V341H415.024C414.929 340.799 414.856 340.549 414.806 340.248C414.76 339.943 414.737 339.637 414.737 339.332ZM414.997 336.495L415.011 337.609H413.91C413.65 337.609 413.425 337.639 413.233 337.698C413.042 337.757 412.885 337.842 412.762 337.951C412.639 338.056 412.548 338.179 412.488 338.32C412.434 338.462 412.406 338.617 412.406 338.785C412.406 338.954 412.445 339.106 412.522 339.243C412.6 339.375 412.712 339.48 412.857 339.558C413.003 339.631 413.174 339.667 413.37 339.667C413.666 339.667 413.924 339.608 414.143 339.489C414.361 339.371 414.53 339.225 414.648 339.052C414.771 338.879 414.835 338.715 414.84 338.56L415.359 339.394C415.286 339.58 415.186 339.774 415.059 339.975C414.936 340.175 414.778 340.364 414.587 340.542C414.396 340.715 414.165 340.859 413.896 340.973C413.628 341.082 413.309 341.137 412.939 341.137C412.47 341.137 412.044 341.043 411.661 340.856C411.283 340.665 410.982 340.403 410.759 340.07C410.54 339.733 410.431 339.35 410.431 338.922C410.431 338.535 410.504 338.19 410.649 337.89C410.795 337.589 411.009 337.336 411.292 337.131C411.579 336.921 411.937 336.764 412.365 336.659C412.794 336.55 413.29 336.495 413.855 336.495H414.997ZM420.165 335.183V341H418.196V333.604H420.042L420.165 335.183ZM419.878 337.042H419.345C419.345 336.495 419.415 336.003 419.557 335.565C419.698 335.123 419.896 334.747 420.151 334.438C420.407 334.123 420.71 333.884 421.061 333.72C421.416 333.551 421.812 333.467 422.25 333.467C422.596 333.467 422.913 333.517 423.2 333.617C423.487 333.717 423.733 333.877 423.938 334.096C424.148 334.314 424.308 334.604 424.417 334.964C424.531 335.324 424.588 335.764 424.588 336.283V341H422.605V336.276C422.605 335.948 422.56 335.693 422.469 335.511C422.378 335.328 422.243 335.201 422.065 335.128C421.892 335.05 421.678 335.012 421.423 335.012C421.159 335.012 420.928 335.064 420.732 335.169C420.541 335.274 420.382 335.42 420.254 335.606C420.131 335.789 420.037 336.003 419.974 336.249C419.91 336.495 419.878 336.759 419.878 337.042ZM428.013 335.183V341H426.044V333.604H427.89L428.013 335.183ZM427.726 337.042H427.192C427.192 336.495 427.263 336.003 427.404 335.565C427.546 335.123 427.744 334.747 427.999 334.438C428.254 334.123 428.557 333.884 428.908 333.72C429.264 333.551 429.66 333.467 430.098 333.467C430.444 333.467 430.761 333.517 431.048 333.617C431.335 333.717 431.581 333.877 431.786 334.096C431.996 334.314 432.155 334.604 432.265 334.964C432.379 335.324 432.436 335.764 432.436 336.283V341H430.453V336.276C430.453 335.948 430.408 335.693 430.316 335.511C430.225 335.328 430.091 335.201 429.913 335.128C429.74 335.05 429.526 335.012 429.271 335.012C429.006 335.012 428.776 335.064 428.58 335.169C428.389 335.274 428.229 335.42 428.102 335.606C427.979 335.789 427.885 336.003 427.821 336.249C427.757 336.495 427.726 336.759 427.726 337.042ZM437.337 341.137C436.763 341.137 436.248 341.046 435.792 340.863C435.336 340.676 434.949 340.419 434.63 340.091C434.315 339.763 434.074 339.382 433.905 338.949C433.737 338.512 433.652 338.047 433.652 337.555V337.281C433.652 336.721 433.732 336.208 433.892 335.743C434.051 335.278 434.279 334.875 434.575 334.533C434.876 334.191 435.241 333.929 435.669 333.747C436.097 333.56 436.58 333.467 437.118 333.467C437.642 333.467 438.107 333.553 438.513 333.727C438.918 333.9 439.258 334.146 439.531 334.465C439.809 334.784 440.019 335.167 440.16 335.613C440.301 336.055 440.372 336.548 440.372 337.09V337.91H434.493V336.598H438.438V336.447C438.438 336.174 438.387 335.93 438.287 335.716C438.191 335.497 438.046 335.324 437.85 335.196C437.654 335.069 437.403 335.005 437.098 335.005C436.838 335.005 436.615 335.062 436.428 335.176C436.241 335.29 436.088 335.449 435.97 335.654C435.856 335.859 435.769 336.101 435.71 336.379C435.655 336.652 435.628 336.953 435.628 337.281V337.555C435.628 337.851 435.669 338.124 435.751 338.375C435.838 338.626 435.958 338.842 436.113 339.024C436.273 339.207 436.464 339.348 436.688 339.448C436.915 339.549 437.173 339.599 437.46 339.599C437.815 339.599 438.146 339.53 438.451 339.394C438.761 339.252 439.028 339.04 439.251 338.758L440.208 339.797C440.053 340.02 439.841 340.234 439.572 340.439C439.308 340.645 438.989 340.813 438.615 340.945C438.242 341.073 437.815 341.137 437.337 341.137ZM443.462 335.217V341H441.493V333.604H443.346L443.462 335.217ZM445.69 333.556L445.656 335.381C445.561 335.367 445.444 335.356 445.308 335.347C445.175 335.333 445.055 335.326 444.945 335.326C444.667 335.326 444.426 335.363 444.221 335.436C444.02 335.504 443.852 335.606 443.715 335.743C443.583 335.88 443.482 336.046 443.414 336.242C443.35 336.438 443.314 336.661 443.305 336.912L442.908 336.789C442.908 336.311 442.956 335.871 443.052 335.47C443.147 335.064 443.286 334.711 443.469 334.41C443.656 334.109 443.883 333.877 444.152 333.713C444.421 333.549 444.729 333.467 445.075 333.467C445.185 333.467 445.296 333.476 445.41 333.494C445.524 333.508 445.618 333.528 445.69 333.556ZM447.406 339.339L447.399 340.658C447.399 341.164 447.272 341.674 447.017 342.189C446.766 342.704 446.447 343.126 446.06 343.454L445.034 342.928C445.148 342.718 445.26 342.508 445.369 342.299C445.479 342.089 445.57 341.859 445.643 341.608C445.715 341.358 445.752 341.073 445.752 340.754V339.339H447.406ZM454.399 335.183V341H452.431V333.604H454.276L454.399 335.183ZM454.112 337.042H453.579C453.579 336.495 453.65 336.003 453.791 335.565C453.932 335.123 454.131 334.747 454.386 334.438C454.641 334.123 454.944 333.884 455.295 333.72C455.65 333.551 456.047 333.467 456.484 333.467C456.831 333.467 457.147 333.517 457.435 333.617C457.722 333.717 457.968 333.877 458.173 334.096C458.382 334.314 458.542 334.604 458.651 334.964C458.765 335.324 458.822 335.764 458.822 336.283V341H456.84V336.276C456.84 335.948 456.794 335.693 456.703 335.511C456.612 335.328 456.478 335.201 456.3 335.128C456.127 335.05 455.912 335.012 455.657 335.012C455.393 335.012 455.163 335.064 454.967 335.169C454.775 335.274 454.616 335.42 454.488 335.606C454.365 335.789 454.272 336.003 454.208 336.249C454.144 336.495 454.112 336.759 454.112 337.042ZM460.005 337.377V337.233C460.005 336.691 460.082 336.192 460.237 335.736C460.392 335.276 460.618 334.877 460.914 334.54C461.21 334.203 461.575 333.941 462.008 333.754C462.441 333.562 462.938 333.467 463.498 333.467C464.059 333.467 464.558 333.562 464.995 333.754C465.433 333.941 465.799 334.203 466.096 334.54C466.396 334.877 466.624 335.276 466.779 335.736C466.934 336.192 467.012 336.691 467.012 337.233V337.377C467.012 337.915 466.934 338.414 466.779 338.874C466.624 339.33 466.396 339.729 466.096 340.07C465.799 340.408 465.435 340.67 465.002 340.856C464.569 341.043 464.072 341.137 463.512 341.137C462.951 341.137 462.452 341.043 462.015 340.856C461.582 340.67 461.215 340.408 460.914 340.07C460.618 339.729 460.392 339.33 460.237 338.874C460.082 338.414 460.005 337.915 460.005 337.377ZM461.974 337.233V337.377C461.974 337.687 462.001 337.976 462.056 338.245C462.11 338.514 462.197 338.751 462.315 338.956C462.438 339.157 462.598 339.314 462.794 339.428C462.99 339.542 463.229 339.599 463.512 339.599C463.785 339.599 464.02 339.542 464.216 339.428C464.412 339.314 464.569 339.157 464.688 338.956C464.806 338.751 464.893 338.514 464.947 338.245C465.007 337.976 465.036 337.687 465.036 337.377V337.233C465.036 336.933 465.007 336.65 464.947 336.386C464.893 336.117 464.804 335.88 464.681 335.675C464.562 335.465 464.405 335.301 464.209 335.183C464.013 335.064 463.776 335.005 463.498 335.005C463.22 335.005 462.983 335.064 462.787 335.183C462.596 335.301 462.438 335.465 462.315 335.675C462.197 335.88 462.11 336.117 462.056 336.386C462.001 336.65 461.974 336.933 461.974 337.233ZM471.845 333.604V334.998H467.538V333.604H471.845ZM468.604 331.778H470.573V338.771C470.573 338.986 470.601 339.15 470.655 339.264C470.715 339.378 470.801 339.457 470.915 339.503C471.029 339.544 471.173 339.564 471.346 339.564C471.469 339.564 471.578 339.56 471.674 339.551C471.774 339.537 471.858 339.523 471.927 339.51L471.934 340.959C471.765 341.014 471.583 341.057 471.387 341.089C471.191 341.121 470.974 341.137 470.737 341.137C470.304 341.137 469.926 341.066 469.603 340.925C469.284 340.779 469.037 340.547 468.864 340.228C468.691 339.909 468.604 339.489 468.604 338.97V331.778ZM480.444 339.332V336.037C480.444 335.8 480.406 335.597 480.328 335.429C480.251 335.256 480.13 335.121 479.966 335.025C479.806 334.93 479.599 334.882 479.344 334.882C479.125 334.882 478.936 334.921 478.776 334.998C478.617 335.071 478.494 335.178 478.407 335.319C478.321 335.456 478.277 335.618 478.277 335.805H476.309C476.309 335.49 476.382 335.192 476.527 334.909C476.673 334.627 476.885 334.378 477.163 334.164C477.441 333.945 477.771 333.774 478.154 333.651C478.542 333.528 478.975 333.467 479.453 333.467C480.027 333.467 480.538 333.562 480.984 333.754C481.431 333.945 481.782 334.232 482.037 334.615C482.297 334.998 482.427 335.477 482.427 336.051V339.216C482.427 339.621 482.452 339.954 482.502 340.214C482.552 340.469 482.625 340.692 482.721 340.884V341H480.731C480.636 340.799 480.563 340.549 480.513 340.248C480.467 339.943 480.444 339.637 480.444 339.332ZM480.704 336.495L480.718 337.609H479.617C479.357 337.609 479.132 337.639 478.94 337.698C478.749 337.757 478.592 337.842 478.469 337.951C478.346 338.056 478.255 338.179 478.195 338.32C478.141 338.462 478.113 338.617 478.113 338.785C478.113 338.954 478.152 339.106 478.229 339.243C478.307 339.375 478.419 339.48 478.564 339.558C478.71 339.631 478.881 339.667 479.077 339.667C479.373 339.667 479.631 339.608 479.85 339.489C480.068 339.371 480.237 339.225 480.355 339.052C480.479 338.879 480.542 338.715 480.547 338.56L481.066 339.394C480.993 339.58 480.893 339.774 480.766 339.975C480.643 340.175 480.485 340.364 480.294 340.542C480.103 340.715 479.872 340.859 479.604 340.973C479.335 341.082 479.016 341.137 478.646 341.137C478.177 341.137 477.751 341.043 477.368 340.856C476.99 340.665 476.689 340.403 476.466 340.07C476.247 339.733 476.138 339.35 476.138 338.922C476.138 338.535 476.211 338.19 476.356 337.89C476.502 337.589 476.716 337.336 476.999 337.131C477.286 336.921 477.644 336.764 478.072 336.659C478.501 336.55 478.997 336.495 479.562 336.495H480.704ZM487.431 330.5H489.399V339.305L489.201 341H487.431V330.5ZM494.082 337.227V337.37C494.082 337.922 494.023 338.427 493.904 338.888C493.79 339.348 493.613 339.747 493.371 340.084C493.13 340.417 492.829 340.676 492.469 340.863C492.113 341.046 491.694 341.137 491.211 341.137C490.76 341.137 490.368 341.046 490.035 340.863C489.707 340.681 489.431 340.424 489.208 340.091C488.985 339.758 488.805 339.368 488.668 338.922C488.531 338.475 488.429 337.988 488.36 337.459V337.145C488.429 336.616 488.531 336.128 488.668 335.682C488.805 335.235 488.985 334.845 489.208 334.513C489.431 334.18 489.707 333.923 490.035 333.74C490.363 333.558 490.751 333.467 491.197 333.467C491.685 333.467 492.109 333.56 492.469 333.747C492.833 333.929 493.134 334.189 493.371 334.526C493.613 334.859 493.79 335.256 493.904 335.716C494.023 336.172 494.082 336.675 494.082 337.227ZM492.113 337.37V337.227C492.113 336.926 492.09 336.643 492.045 336.379C492.004 336.11 491.931 335.875 491.826 335.675C491.721 335.47 491.578 335.308 491.396 335.189C491.218 335.071 490.988 335.012 490.705 335.012C490.436 335.012 490.208 335.057 490.021 335.148C489.835 335.24 489.68 335.367 489.557 335.531C489.438 335.695 489.349 335.891 489.29 336.119C489.231 336.342 489.194 336.589 489.181 336.857V337.753C489.194 338.113 489.254 338.432 489.358 338.71C489.468 338.983 489.632 339.2 489.851 339.359C490.074 339.514 490.363 339.592 490.719 339.592C490.997 339.592 491.227 339.537 491.409 339.428C491.591 339.318 491.733 339.163 491.833 338.963C491.938 338.762 492.011 338.528 492.052 338.259C492.093 337.985 492.113 337.689 492.113 337.37ZM499.681 339.229V333.604H501.649V341H499.797L499.681 339.229ZM499.899 337.712L500.48 337.698C500.48 338.19 500.424 338.648 500.31 339.072C500.196 339.492 500.025 339.856 499.797 340.166C499.569 340.471 499.282 340.711 498.936 340.884C498.589 341.052 498.181 341.137 497.712 341.137C497.352 341.137 497.019 341.087 496.714 340.986C496.413 340.882 496.153 340.72 495.935 340.501C495.72 340.278 495.552 339.993 495.429 339.646C495.31 339.296 495.251 338.874 495.251 338.382V333.604H497.22V338.396C497.22 338.614 497.245 338.799 497.295 338.949C497.35 339.1 497.425 339.223 497.521 339.318C497.616 339.414 497.728 339.482 497.855 339.523C497.988 339.564 498.133 339.585 498.293 339.585C498.699 339.585 499.018 339.503 499.25 339.339C499.487 339.175 499.653 338.951 499.749 338.669C499.849 338.382 499.899 338.063 499.899 337.712ZM506.776 333.604V334.998H502.47V333.604H506.776ZM503.536 331.778H505.505V338.771C505.505 338.986 505.532 339.15 505.587 339.264C505.646 339.378 505.733 339.457 505.847 339.503C505.961 339.544 506.104 339.564 506.277 339.564C506.4 339.564 506.51 339.56 506.605 339.551C506.706 339.537 506.79 339.523 506.858 339.51L506.865 340.959C506.697 341.014 506.514 341.057 506.318 341.089C506.122 341.121 505.906 341.137 505.669 341.137C505.236 341.137 504.858 341.066 504.534 340.925C504.215 340.779 503.969 340.547 503.796 340.228C503.623 339.909 503.536 339.489 503.536 338.97V331.778ZM511.521 333.604V334.998H507.214V333.604H511.521ZM508.28 331.778H510.249V338.771C510.249 338.986 510.276 339.15 510.331 339.264C510.39 339.378 510.477 339.457 510.591 339.503C510.705 339.544 510.848 339.564 511.021 339.564C511.145 339.564 511.254 339.56 511.35 339.551C511.45 339.537 511.534 339.523 511.603 339.51L511.609 340.959C511.441 341.014 511.258 341.057 511.062 341.089C510.867 341.121 510.65 341.137 510.413 341.137C509.98 341.137 509.602 341.066 509.278 340.925C508.959 340.779 508.713 340.547 508.54 340.228C508.367 339.909 508.28 339.489 508.28 338.97V331.778ZM512.149 337.377V337.233C512.149 336.691 512.227 336.192 512.382 335.736C512.537 335.276 512.762 334.877 513.059 334.54C513.355 334.203 513.719 333.941 514.152 333.754C514.585 333.562 515.082 333.467 515.643 333.467C516.203 333.467 516.702 333.562 517.14 333.754C517.577 333.941 517.944 334.203 518.24 334.54C518.541 334.877 518.769 335.276 518.924 335.736C519.079 336.192 519.156 336.691 519.156 337.233V337.377C519.156 337.915 519.079 338.414 518.924 338.874C518.769 339.33 518.541 339.729 518.24 340.07C517.944 340.408 517.579 340.67 517.146 340.856C516.714 341.043 516.217 341.137 515.656 341.137C515.096 341.137 514.597 341.043 514.159 340.856C513.726 340.67 513.359 340.408 513.059 340.07C512.762 339.729 512.537 339.33 512.382 338.874C512.227 338.414 512.149 337.915 512.149 337.377ZM514.118 337.233V337.377C514.118 337.687 514.146 337.976 514.2 338.245C514.255 338.514 514.341 338.751 514.46 338.956C514.583 339.157 514.743 339.314 514.938 339.428C515.134 339.542 515.374 339.599 515.656 339.599C515.93 339.599 516.164 339.542 516.36 339.428C516.556 339.314 516.714 339.157 516.832 338.956C516.951 338.751 517.037 338.514 517.092 338.245C517.151 337.976 517.181 337.687 517.181 337.377V337.233C517.181 336.933 517.151 336.65 517.092 336.386C517.037 336.117 516.948 335.88 516.825 335.675C516.707 335.465 516.549 335.301 516.354 335.183C516.158 335.064 515.921 335.005 515.643 335.005C515.365 335.005 515.128 335.064 514.932 335.183C514.74 335.301 514.583 335.465 514.46 335.675C514.341 335.88 514.255 336.117 514.2 336.386C514.146 336.65 514.118 336.933 514.118 337.233ZM522.294 335.183V341H520.325V333.604H522.171L522.294 335.183ZM522.007 337.042H521.474C521.474 336.495 521.544 336.003 521.686 335.565C521.827 335.123 522.025 334.747 522.28 334.438C522.535 334.123 522.839 333.884 523.189 333.72C523.545 333.551 523.941 333.467 524.379 333.467C524.725 333.467 525.042 333.517 525.329 333.617C525.616 333.717 525.862 333.877 526.067 334.096C526.277 334.314 526.437 334.604 526.546 334.964C526.66 335.324 526.717 335.764 526.717 336.283V341H524.734V336.276C524.734 335.948 524.689 335.693 524.598 335.511C524.507 335.328 524.372 335.201 524.194 335.128C524.021 335.05 523.807 335.012 523.552 335.012C523.287 335.012 523.057 335.064 522.861 335.169C522.67 335.274 522.51 335.42 522.383 335.606C522.26 335.789 522.166 336.003 522.103 336.249C522.039 336.495 522.007 336.759 522.007 337.042ZM528.31 340.05C528.31 339.758 528.41 339.514 528.61 339.318C528.815 339.122 529.087 339.024 529.424 339.024C529.761 339.024 530.03 339.122 530.23 339.318C530.436 339.514 530.538 339.758 530.538 340.05C530.538 340.341 530.436 340.585 530.23 340.781C530.03 340.977 529.761 341.075 529.424 341.075C529.087 341.075 528.815 340.977 528.61 340.781C528.41 340.585 528.31 340.341 528.31 340.05Z" fill="white"/>
<defs>
<linearGradient id="paint0_linear_1677_24620" x1="424" y1="0" x2="424" y2="443.22" gradientUnits="userSpaceOnUse">
<stop stop-color="#009153"/>
<stop offset="1" stop-color="#00CC75"/>
</linearGradient>
<linearGradient id="paint1_linear_1677_24620" x1="424" y1="0" x2="424" y2="443.22" gradientUnits="userSpaceOnUse">
<stop stop-color="#009153"/>
<stop offset="1" stop-color="#00CC75"/>
</linearGradient>
</defs>
</svg>
